<?xml version="1.0" standalone="no"?>
<!DOCTYPE svg PUBLIC "-//W3C//DTD SVG 1.1//EN" "http://www.w3.org/Graphics/SVG/1.1/DTD/svg11.dtd" >
<svg xmlns="http://www.w3.org/2000/svg">
<metadata></metadata>
<defs>
<font id="kuraleregular" horiz-adv-x="1358" >
<font-face units-per-em="2048" ascent="1638" descent="-410" />
<missing-glyph horiz-adv-x="632" />
<glyph unicode="&#xfb01;" horiz-adv-x="1144" d="M-194 -254q0 -86 65 -137t163 -51q166 0 250 112t84 306v830h324q36 0 36 -42v-594q0 -106 33 -151t109 -45q100 0 208 118l-36 48q-46 -40 -94 -40q-54 0 -54 64v724q0 56 -58 56q-62 -22 -144 -22h-324q0 446 264 446q58 0 91 -36t33 -96q0 -46 -12 -80t-23 -50 t-11 -22q0 -20 34 -20q78 0 131 51t53 129q0 92 -77 150t-199 58q-196 0 -309 -141t-137 -389l-124 -28q-30 -8 -37 -23t-7 -65h164v-974q0 -96 -37 -145t-93 -49q-44 0 -73 33t-29 89q0 38 13 68t26 46t13 20q0 20 -34 20q-78 0 -130 -48t-52 -120z" />
<glyph unicode="&#xfb02;" horiz-adv-x="1160" d="M-194 -254q0 -86 65 -137t163 -51q166 0 250 112t84 306v830h218q44 32 44 116h-262q0 446 236 446q90 0 135 -59t45 -157v-982q0 -106 33 -151t109 -45q102 0 206 118l-34 48q-42 -40 -92 -40q-58 0 -58 64v1220q0 32 -6 45t-30 13q-50 0 -112 -50q-76 60 -174 60 q-186 0 -292 -141t-128 -389l-124 -28q-30 -8 -37 -23t-7 -65h164v-974q0 -96 -37 -145t-93 -49q-44 0 -73 33t-29 89q0 38 13 68t26 46t13 20q0 20 -34 20q-78 0 -130 -48t-52 -120z" />
<glyph unicode="&#xfb03;" horiz-adv-x="1632" d="M-194 -254q0 -86 65 -137t163 -51q208 0 292 182q74 -52 176 -52q200 0 297 172t97 474v472h322q38 0 38 -42v-594q0 -106 32 -151t108 -45q102 0 210 118l-38 48q-42 -40 -92 -40q-54 0 -54 64v724q0 26 -16 41t-42 15q-62 -22 -146 -22h-322q0 446 262 446q58 0 90 -36 t32 -96q0 -46 -10 -80t-21 -50t-11 -22q0 -20 34 -20q78 0 131 51t53 129q0 92 -78 150t-200 58q-178 0 -288 -120q-96 120 -238 120q-196 0 -309 -141t-137 -389l-118 -28q-28 -8 -37 -24t-9 -64h160v-974q0 -96 -37 -145t-93 -49q-44 0 -73 33t-29 89q0 38 13 68t26 46 t13 20q0 20 -34 20q-78 0 -130 -48t-52 -120zM358 -154q10 50 10 130v830h362v-596q0 -442 -236 -442q-80 0 -136 78zM368 922q0 208 64 327t200 119q72 0 118 -43t56 -117q-60 -116 -72 -286h-366z" />
<glyph unicode="&#xfb04;" horiz-adv-x="1632" d="M-194 -254q0 -86 65 -137t163 -51q208 0 292 182q74 -52 176 -52q200 0 297 172t97 474v472h216q44 32 44 116h-260q0 446 234 446q90 0 134 -59t44 -157v-982q0 -104 35 -150t111 -46q102 0 206 118l-34 48q-46 -40 -94 -40q-56 0 -56 64l2 1220q0 30 -7 44t-31 14 q-50 0 -112 -50q-76 60 -174 60q-164 0 -268 -114q-96 114 -234 114q-196 0 -309 -141t-137 -389l-118 -28q-28 -8 -37 -24t-9 -64h160v-974q0 -96 -37 -145t-93 -49q-44 0 -73 33t-29 89q0 38 13 68t26 46t13 20q0 20 -34 20q-78 0 -130 -48t-52 -120zM358 -154 q10 50 10 130v830h362v-596q0 -442 -236 -442q-80 0 -136 78zM368 922q0 208 64 327t200 119q70 0 116 -42t56 -112q-58 -124 -70 -292h-366z" />
<glyph horiz-adv-x="0" />
<glyph unicode="&#xd;" horiz-adv-x="682" />
<glyph unicode=" "  horiz-adv-x="632" />
<glyph unicode="&#x09;" horiz-adv-x="632" />
<glyph unicode="&#xa0;" horiz-adv-x="632" />
<glyph unicode="!" horiz-adv-x="504" d="M110 1376q0 -204 70 -924q8 -84 50 -84q34 0 44 84q70 720 70 924q-44 48 -114 48q-76 0 -120 -48zM114 94q0 -34 41 -77t75 -43q32 0 73 43t41 77q0 38 -40 81t-74 43t-75 -43t-41 -81z" />
<glyph unicode="&#x22;" horiz-adv-x="702" d="M70 1492q0 -154 58 -396q6 -34 38 -34q26 0 36 34q58 242 58 396q-32 54 -94 54t-96 -54zM376 1492q0 -154 58 -396q10 -34 36 -34q32 0 38 34q58 254 58 396q-34 54 -96 54t-94 -54z" />
<glyph unicode="#" horiz-adv-x="1426" d="M94 418h184l-114 -418h130l116 418h332l-114 -418h130l116 418h186l34 120h-186l70 250h186l34 120h-186l118 424h-134l-116 -424h-332l118 424h-134l-114 -424h-186l-36 -120h184l-70 -250h-184zM444 538l70 250h328l-66 -250h-332z" />
<glyph unicode="$" horiz-adv-x="1190" d="M100 300q0 -130 105 -207t263 -91v-284q86 0 118 42v242q164 14 260 109t96 233q0 102 -48 176t-119 112t-155 77t-155 73t-119 97t-48 151q0 78 56 139t160 61q76 0 134 -45t58 -121q0 -44 -15 -80t-29 -56t-14 -24q0 -16 9 -20t33 -4q84 0 141 57t57 141q0 102 -85 167 t-217 83v292q-82 0 -118 -48v-240q-166 -14 -256 -117t-90 -235q0 -126 65 -212t159 -132t187 -85t158 -97t65 -142q0 -94 -67 -151t-157 -57q-104 0 -178 56t-74 154q0 44 14 80t29 55t15 25q0 16 -7 19t-33 3q-86 0 -142 -54t-56 -142z" />
<glyph unicode="%" horiz-adv-x="2084" d="M94 936q0 -172 76 -295t238 -123t256 127t94 317q0 172 -84 283t-236 111q-158 0 -251 -120t-93 -300zM248 936q0 144 45 238t133 94q86 0 130 -94t44 -238q0 -148 -44 -240t-130 -92q-88 0 -133 92t-45 240zM602 0h130l560 1332h-134zM1132 394q0 -172 76 -296t238 -124 t256 128t94 318q0 172 -84 282t-236 110q-158 0 -251 -119t-93 -299zM1288 394q0 144 45 238t131 94t130 -94t44 -238q0 -148 -44 -240t-130 -92q-88 0 -132 92t-44 240z" />
<glyph unicode="&#x26;" horiz-adv-x="1368" d="M58 356q0 -180 127 -281t345 -101q220 0 326 97t106 223q0 116 -90 192q368 26 368 244q0 86 -58 139t-140 53q-80 0 -80 -28q0 -8 15 -22t34 -30t34 -49t15 -73q0 -74 -62 -111t-152 -44t-179 -11t-151 -30t-62 -84q0 -22 12 -41t26 -19q8 0 26 21t66 45t126 30 q10 0 32 1t38 1q46 -60 46 -150q0 -122 -80 -189t-206 -67q-122 0 -197 86t-75 200q0 116 74 209t220 131q24 0 24 36q0 42 -26 42q-96 0 -161 67t-65 191q0 98 62 168t172 70q78 0 124 -42t46 -112q0 -38 -9 -66t-19 -42t-10 -16q0 -20 38 -20q74 0 118 45t44 117 q0 98 -90 160t-222 62q-216 0 -337 -99t-121 -235q0 -242 264 -306q-164 -44 -250 -139t-86 -223z" />
<glyph unicode="'" horiz-adv-x="364" d="M70 1492q0 -154 58 -396q6 -34 38 -34q26 0 36 34q58 242 58 396q-32 54 -94 54t-96 -54z" />
<glyph unicode="(" horiz-adv-x="720" d="M106 614q0 -310 127 -517t363 -303v82q-130 84 -210 276t-80 462t80 463t210 277v82q-236 -100 -363 -307t-127 -515z" />
<glyph unicode=")" horiz-adv-x="720" d="M58 -124v-82q488 200 488 820q0 308 -126 515t-362 307v-82q130 -84 209 -277t79 -463t-79 -462t-209 -276z" />
<glyph unicode="*" horiz-adv-x="1176" d="M130 1214q0 -34 30 -70q72 -10 174 -24t136 -18q-18 -16 -93 -89t-133 -127q0 -48 27 -85t75 -37q26 0 48 12q28 58 75 154t63 130q12 -28 58 -122t78 -164q28 -12 50 -12q44 0 73 35t29 89q-52 50 -127 122t-99 94q26 4 129 18t183 24q28 34 28 74q0 84 -88 106 l-278 -150l60 310q-32 56 -96 56q-62 0 -94 -56q10 -56 56 -310q-60 32 -276 152q-40 -10 -64 -40t-24 -72z" />
<glyph unicode="+" horiz-adv-x="1272" d="M182 594h324v-324h138v324h324v138h-324v326h-138v-326h-324v-138z" />
<glyph unicode="," horiz-adv-x="392" d="M12 -194l56 -36l72 78q78 84 115 140t37 108q0 124 -122 124q-44 0 -102 -22l-34 -12l8 -44l36 -24q42 -30 42 -66q0 -30 -22 -78z" />
<glyph unicode="-" horiz-adv-x="728" d="M62 468l486 18q50 42 50 132l-490 -20q-46 -40 -46 -130z" />
<glyph unicode="." horiz-adv-x="392" d="M62 94q0 -34 40 -77t72 -43q34 0 76 43t42 77q0 38 -42 81t-76 43t-73 -43t-39 -81z" />
<glyph unicode="/" horiz-adv-x="760" d="M0 -118h130l560 1568h-134z" />
<glyph unicode="0" horiz-adv-x="1420" d="M110 668q0 -130 28 -248t85 -221t159 -164t238 -61q256 0 405 210t149 522q0 286 -133 469t-375 183q-252 0 -404 -198t-152 -492zM306 664q0 258 86 424t250 166q162 0 248 -167t86 -423q0 -254 -86 -419t-248 -165q-164 0 -250 164t-86 420z" />
<glyph unicode="1" horiz-adv-x="856" d="M0 1122q52 -112 128 -126l228 146v-896q0 -86 -23 -116t-95 -48l-80 -18l22 -64h444l22 30l-22 34q-46 60 -65 127t-19 181v890l48 30q-28 60 -74 70z" />
<glyph unicode="2" horiz-adv-x="1220" d="M70 94l48 -94h850q62 50 62 168h-700q152 124 255 218t205 207t154 217t52 200q0 166 -122 257t-332 91q-178 0 -304 -85t-126 -241q0 -84 57 -140t141 -56q24 0 33 3t9 19l-28 50q-30 52 -30 110q0 112 74 175t174 63q98 0 170 -64t72 -180q0 -122 -52 -231t-209 -276 t-453 -411z" />
<glyph unicode="3" horiz-adv-x="1220" d="M106 274q0 -142 127 -221t303 -79q216 0 342 96t126 272q0 130 -80 226t-232 130q274 104 274 338q0 154 -130 238t-304 84q-162 0 -276 -73t-114 -207q0 -88 56 -143t142 -55q38 0 38 24q0 4 -13 24t-27 56t-14 80q0 92 60 142t146 50q92 0 162 -60t70 -170 q0 -36 -6 -67t-27 -71t-57 -72t-103 -61t-159 -47q-68 -12 -86 -25t-18 -37q0 -32 28 -32q4 0 23 5t53 9t74 4q98 0 165 -28t98 -75t43 -88t12 -87q0 -126 -80 -194t-190 -68q-102 0 -173 53t-71 145q0 44 14 79t28 54t14 25q0 16 -8 19t-32 3q-86 0 -142 -54t-56 -142z" />
<glyph unicode="4" horiz-adv-x="1246" d="M58 300h656v-54q0 -88 -21 -117t-95 -47l-78 -18l20 -64h444l22 30l-22 34q-76 98 -82 236h128q42 34 42 120h-172v470l-204 -22l-24 -30q42 -66 42 -170v-248h-476l400 882l-34 30h-118z" />
<glyph unicode="5" horiz-adv-x="1220" d="M106 274q0 -142 127 -221t303 -79q212 0 340 103t128 281q0 174 -118 293t-352 119q-118 0 -230 -26l26 420h544q62 52 62 168h-722l-34 -618l40 -70q126 24 198 24q96 0 168 -21t112 -53t65 -76t32 -82t7 -78q0 -126 -81 -196t-189 -70q-102 0 -173 53t-71 145 q0 44 14 79t28 54t14 25q0 16 -8 19t-32 3q-86 0 -142 -54t-56 -142z" />
<glyph unicode="6" horiz-adv-x="1324" d="M106 608q0 -270 135 -452t381 -182q212 0 328 122t116 308q0 164 -97 269t-279 105q-150 0 -248 -71t-134 -187q-2 26 -2 86q0 116 19 225t59 207t113 157t171 59q86 0 138 -51t52 -137q0 -52 -26 -102l-28 -52q0 -20 38 -20q86 0 142 60t56 154q0 112 -102 182t-266 70 q-182 0 -313 -104t-192 -270t-61 -376zM380 362q0 122 64 206t178 84q110 0 164 -77t54 -199q0 -128 -64 -206t-180 -78q-110 0 -163 74t-53 196z" />
<glyph unicode="7" horiz-adv-x="1016" d="M4 1332q0 -118 64 -168h638l-350 -906q-34 -84 -74 -124t-114 -60l-42 -10l22 -64h342l36 30l-18 34q-28 48 -28 112q0 86 46 194l378 962h-900z" />
<glyph unicode="8" horiz-adv-x="1262" d="M100 306q0 -172 126 -254t330 -82q226 0 356 98t130 264q0 226 -262 362q228 136 228 328q0 174 -125 258t-325 84q-206 0 -316 -110t-110 -266q0 -116 53 -194t161 -138q-246 -146 -246 -350zM296 312q0 154 140 302l198 -86q110 -50 157 -102t47 -144q0 -98 -78 -154 t-202 -56q-122 0 -192 67t-70 173zM326 1042q0 88 66 153t166 65q118 0 184 -65t66 -171q0 -144 -122 -286l-118 54q-134 58 -188 116t-54 134z" />
<glyph unicode="9" horiz-adv-x="1324" d="M144 900q0 -160 96 -274t266 -114q126 0 220 58t142 156q2 -32 2 -100q0 -146 -28 -262t-105 -200t-197 -84q-82 0 -134 45t-52 119q0 46 22 90t22 46q0 22 -40 22q-80 0 -133 -46t-53 -122q0 -114 104 -187t266 -73q256 0 390 184t134 474q0 206 -46 365t-155 260 t-269 101q-212 0 -332 -138t-120 -320zM366 940q0 122 63 210t181 88q108 0 170 -90t62 -210q0 -118 -66 -206t-184 -88q-108 0 -167 88t-59 208z" />
<glyph unicode=":" horiz-adv-x="392" d="M62 94q0 -34 40 -77t72 -43q34 0 76 43t42 77q0 38 -42 81t-76 43t-73 -43t-39 -81zM62 762q0 -34 40 -77t72 -43q34 0 76 43t42 77q0 38 -42 81t-76 43t-73 -43t-39 -81z" />
<glyph unicode=";" horiz-adv-x="392" d="M12 -194l56 -36l72 78q78 84 115 140t37 108q0 124 -122 124q-44 0 -102 -22l-34 -12l8 -44l36 -24q42 -30 42 -66q0 -30 -22 -78zM62 762q0 -34 40 -77t72 -43q34 0 76 43t42 77q0 38 -42 81t-76 43t-73 -43t-39 -81z" />
<glyph unicode="&#x3c;" horiz-adv-x="1272" d="M182 594l786 -320v144l-626 244l626 246v144l-786 -320v-138z" />
<glyph unicode="=" horiz-adv-x="1272" d="M182 392h786v140h-786v-140zM182 794h786v138h-786v-138z" />
<glyph unicode="&#x3e;" horiz-adv-x="1272" d="M182 274l786 320v138l-786 320v-144l628 -246l-628 -244v-144z" />
<glyph unicode="?" horiz-adv-x="1102" d="M94 1152q0 -80 51 -132t131 -52q34 0 34 22q0 6 -11 22t-21 50t-10 80q0 74 47 117t127 43q104 0 165 -58t61 -172q0 -116 -71 -240t-293 -314l116 -118h36l8 36q16 52 49 92t107 108q260 254 260 448q0 150 -113 237t-281 87q-172 0 -282 -71t-110 -185zM320 94 q0 -34 40 -77t72 -43q34 0 75 43t41 77q0 38 -41 81t-75 43t-73 -43t-39 -81z" />
<glyph unicode="@" horiz-adv-x="1826" d="M102 464q0 -286 184 -477t482 -191q202 0 388 110l-46 80q-136 -84 -332 -84q-232 0 -365 156t-133 402q0 290 169 488t431 198q228 0 360 -155t132 -399q0 -202 -63 -315t-129 -113q-42 0 -69 39t-27 111q0 24 40 490q2 22 22 52l18 32l-14 20q-30 2 -144 19t-166 17 q-182 0 -295 -127t-113 -343q0 -146 65 -226t165 -80q148 0 266 142q0 -116 62 -179t164 -63q126 0 220 83t137 198t43 235q0 286 -184 478t-480 192q-328 0 -558 -233t-230 -557zM614 522q0 124 59 220t165 96q68 0 120 -42l-32 -370q-82 -118 -170 -118q-60 0 -101 60 t-41 154z" />
<glyph unicode="A" horiz-adv-x="1308" d="M-30 64l24 -64h340l34 30l-14 34q-26 44 -26 112t40 194l46 136h428l88 -260q22 -74 22 -88q0 -64 -82 -84l-44 -10l20 -64h420l24 30q-68 52 -103 96t-65 132l-374 1074h-356l-24 -64l44 -10q82 -18 82 -82q0 -26 -20 -90l-292 -840q-28 -86 -61 -118t-109 -54zM454 622 l172 520l178 -520h-350z" />
<glyph unicode="B" horiz-adv-x="1206" d="M74 1276l22 -70h108q40 0 40 -42v-918q0 -86 -23 -118t-95 -54l-44 -10l24 -64h518q480 0 480 366q0 100 -70 183t-192 125q194 92 194 320q0 162 -123 263t-379 101q-118 0 -248 -25t-212 -57zM430 340v828q0 88 124 88q142 0 221 -74t79 -192q0 -122 -70 -196t-196 -74 q-32 0 -61 5t-33 5q-26 0 -26 -32q0 -28 28 -42q56 -24 124 -24q132 0 212 -75t80 -183q0 -124 -74 -201t-204 -77q-36 0 -64 6t-64 27t-56 75t-20 136z" />
<glyph unicode="C" horiz-adv-x="1144" d="M66 664q0 -196 63 -348t199 -247t330 -95q270 0 434 234q4 12 4 16q0 18 -20 35t-40 17q-6 0 -12 -8q-112 -166 -350 -166q-180 0 -290 162t-110 400q0 110 21 210t64 189t122 141t183 52q106 0 171 -55t65 -141q0 -44 -14 -82t-29 -59t-15 -27q0 -22 42 -22q84 0 140 60 t56 156q0 122 -116 197t-300 75q-292 0 -445 -195t-153 -499z" />
<glyph unicode="D" d="M66 1276l22 -70h106q42 0 42 -42v-938q0 -70 -30 -102t-88 -50l-44 -10l22 -64h582q298 0 457 186t159 478q0 116 -22 214t-75 188t-134 154t-207 101t-288 37q-270 0 -502 -82zM420 326v842q0 88 182 88q162 0 277 -86t165 -216t50 -286q0 -574 -474 -574q-90 0 -145 49 t-55 183z" />
<glyph unicode="E" horiz-adv-x="1128" d="M82 60l22 -60h782q54 0 78 -26l14 -20l36 20v318l-62 20l-12 -42q-26 -98 -65 -131t-137 -33h-200q-72 0 -95 26t-23 114v378h156q102 0 144 -20t60 -84l12 -46l62 22v318l-36 20l-16 -20q-58 -84 -146 -84h-236v356q0 86 23 114t95 28h182q96 0 135 -33t65 -133l10 -44 l64 22v330l-28 24l-36 -24q-48 -38 -210 -38h-566l-26 -30l26 -34q82 -110 82 -308v-726q0 -82 -23 -113t-91 -51z" />
<glyph unicode="F" horiz-adv-x="1014" d="M82 30l24 -30h408l22 64l-44 10q-72 22 -95 54t-23 118v360h140q100 0 143 -22t61 -86l10 -42l64 22v318l-38 22l-16 -22q-58 -86 -144 -86h-220v376q0 86 23 114t95 28h164q98 0 136 -33t64 -133l14 -44l60 22v330l-28 24l-32 -24q-54 -38 -214 -38h-550l-24 -30l24 -34 q86 -110 86 -308v-588q0 -112 -19 -179t-67 -129z" />
<glyph unicode="G" horiz-adv-x="1280" d="M66 698q0 -292 148 -480t426 -188q178 0 328 124v-176q0 -212 -61 -305t-183 -93q-88 0 -139 50t-51 124q0 60 23 104t46 67t23 29q0 20 -34 20q-112 0 -174 -66t-62 -160q0 -108 88 -187t250 -79q438 0 438 548v214q0 198 86 312l24 32l-24 32h-390l-22 -64l40 -14 q72 -20 97 -54t25 -118v-94q-124 -124 -312 -124q-176 0 -283 159t-107 395q0 96 22 187t67 175t129 136t194 52q120 0 192 -60t72 -156q0 -46 -13 -83t-26 -58t-13 -27q0 -16 5 -20t33 -4q84 0 141 62t57 158q0 128 -125 209t-323 81q-294 0 -453 -190t-159 -470z" />
<glyph unicode="H" horiz-adv-x="1444" d="M74 64l22 -64h456l18 60l-38 10q-68 20 -90 51t-22 113v386h606v-374q0 -86 -24 -118t-96 -54l-40 -10l22 -64h454l20 60l-38 10q-70 20 -93 52t-23 112v726q0 196 84 308l28 34l-28 30h-404l-22 -64l40 -10q72 -20 96 -54t24 -118v-354h-606v228q0 200 84 308l24 34 l-24 30h-408l-22 -64l44 -10q70 -20 94 -54t24 -118v-840q0 -86 -23 -118t-95 -54z" />
<glyph unicode="I" horiz-adv-x="654" d="M74 64l22 -64h456l18 60l-38 10q-68 20 -90 51t-22 113v726q0 200 84 308l24 34l-24 30h-408l-22 -64l44 -10q70 -20 94 -54t24 -118v-840q0 -86 -23 -118t-95 -54z" />
<glyph unicode="J" horiz-adv-x="870" d="M-36 240q0 -108 88 -187t248 -79q390 0 390 464v522q0 202 80 308l26 34l-26 30h-404l-22 -64l42 -10q72 -20 96 -54t24 -118v-760q0 -256 -194 -256q-78 0 -123 50t-45 124q0 58 22 102t45 67t23 31q0 20 -36 20q-110 0 -172 -66t-62 -158z" />
<glyph unicode="K" horiz-adv-x="1240" d="M74 64l22 -64h456l18 60l-38 10q-68 20 -90 51t-22 113v726q0 200 84 308l24 34l-24 30h-408l-22 -64l44 -10q70 -20 94 -54t24 -118v-840q0 -86 -23 -118t-95 -54zM464 662q0 -18 8 -20q66 -32 96 -84l222 -402q50 -92 106 -137t140 -45q98 0 170 74l-30 54 q-34 -26 -72 -26q-34 0 -72 56l-236 424q-46 80 -128 118l334 484q56 80 144 100l44 10l-22 64h-338l-34 -30l16 -34q24 -60 24 -82q0 -44 -38 -106l-254 -374h-42q-38 0 -38 -44z" />
<glyph unicode="L" horiz-adv-x="1018" d="M74 1268l44 -10q70 -20 94 -54t24 -118v-852q0 -82 -23 -113t-91 -51l-40 -10l22 -60h740q62 0 80 -26l14 -20l38 20v318l-64 20l-10 -42q-26 -98 -66 -131t-136 -33h-162q-72 0 -95 26t-23 114v714q0 200 84 308l24 34l-24 30h-408z" />
<glyph unicode="M" horiz-adv-x="1708" d="M28 64l20 -64h348l30 30l-24 34q-66 94 -66 232q0 22 10 182l42 574l388 -920h100l388 920l56 -776q0 -10 1 -36t1 -34q0 -56 -24 -85t-84 -47l-42 -10l22 -64h408l24 30q-112 112 -130 330l-36 510q-8 104 -8 164q0 140 68 234l20 34l-28 30h-268l-392 -934l-384 934 h-338l-20 -64l46 -10q60 -16 83 -43t23 -91q0 -88 -8 -144l-52 -734q-6 -86 -32 -118t-100 -54z" />
<glyph unicode="N" horiz-adv-x="1444" d="M64 64l22 -64h352l24 30l-24 34q-46 60 -64 127t-18 181v678l706 -1050h188l22 30l-22 34q-28 40 -28 100v796q0 198 82 308l28 34l-28 30h-348l-26 -64l44 -10q72 -20 96 -54t24 -118v-806l-710 1052h-298l-22 -64l42 -10q70 -20 94 -54t24 -118v-840q0 -86 -23 -118 t-95 -54z" />
<glyph unicode="O" d="M66 664q0 -304 157 -497t455 -193t457 193t159 497t-159 499t-457 195t-455 -195t-157 -499zM266 648q0 258 114 432t310 174q112 0 195 -59t126 -153t63 -191t20 -193q0 -246 -114 -411t-310 -165q-194 0 -299 160t-105 406z" />
<glyph unicode="P" horiz-adv-x="1104" d="M66 1276l22 -70h106q42 0 42 -42v-918q0 -84 -24 -119t-94 -53l-44 -10l22 -64h408l24 30l-24 34q-48 60 -66 127t-18 181v796q0 88 140 88q150 0 233 -97t83 -249q0 -150 -78 -240t-218 -90q-32 0 -59 7t-31 7q-30 0 -30 -46q0 -30 49 -47t115 -17q218 0 331 124 t113 310q0 194 -133 317t-407 123q-248 0 -462 -82z" />
<glyph unicode="Q" d="M66 664q0 -318 164 -504t448 -186q124 0 226 34l72 -156q118 -264 304 -264q72 0 123 44t51 110q0 18 -18 18q-2 0 -35 -12t-67 -12q-134 0 -194 144l-94 206q248 186 248 578q0 320 -166 507t-450 187q-282 0 -447 -187t-165 -507zM266 648q0 268 118 437t306 169 q176 0 290 -167t114 -429q0 -258 -126 -424q-148 236 -362 236q-108 0 -171 -53t-63 -145q0 -28 4 -36q-110 150 -110 412zM454 246q0 54 33 86t87 32q74 0 147 -62t127 -172q-80 -48 -178 -48t-157 45t-59 119z" />
<glyph unicode="R" horiz-adv-x="1186" d="M28 1276l24 -70h106q40 0 40 -42v-918q0 -84 -24 -119t-94 -53l-44 -10l24 -64h406l24 30l-24 34q-48 66 -67 132t-19 176v796q0 88 144 88t229 -85t85 -227q0 -134 -80 -211t-216 -77q-34 0 -60 6t-28 6q-30 0 -30 -42q0 -28 34 -46q64 -22 87 -39t39 -51l142 -298 q56 -122 112 -170t142 -48q90 0 174 74l-34 54q-34 -26 -70 -26q-46 0 -72 56l-172 352q-26 52 -76 90q142 34 221 133t79 245q0 192 -142 299t-398 107q-108 0 -240 -24t-222 -58z" />
<glyph unicode="S" horiz-adv-x="1060" d="M82 272q0 -132 129 -215t331 -83q204 0 315 98t111 264q0 128 -70 217t-169 138t-199 92t-170 106t-70 151q0 90 60 153t170 63q104 0 169 -55t65 -141q0 -44 -14 -82t-28 -59t-14 -27q0 -22 38 -22q84 0 141 61t57 155q0 120 -116 196t-298 76q-194 0 -301 -106 t-107 -254q0 -92 37 -163t96 -114t130 -78t142 -67t130 -68t96 -91t37 -129q0 -98 -66 -154t-172 -56q-120 0 -194 61t-74 159q0 46 15 84t30 59t15 27q0 22 -40 22q-90 0 -151 -61t-61 -157z" />
<glyph unicode="T" horiz-adv-x="1104" d="M36 1040l64 -22l10 44q28 100 66 133t136 33h84q40 0 52 -28t12 -114v-714q0 -114 -19 -181t-65 -127l-22 -34l22 -30h408l22 64l-44 10q-72 22 -96 54t-24 118v840q0 86 13 114t51 28h86q96 0 135 -33t67 -133l10 -44l64 22v330l-32 24l-32 -24q-48 -38 -210 -38h-484 q-158 0 -210 38l-32 24l-32 -24v-330z" />
<glyph unicode="U" horiz-adv-x="1370" d="M42 1268l46 -10q72 -20 95 -54t23 -118v-680q0 -218 135 -325t353 -107q214 0 346 108t132 324v554q0 200 84 308l24 34l-24 30h-352l-24 -64l44 -10q72 -20 95 -54t23 -118v-680q0 -146 -92 -230t-232 -84q-142 0 -235 84t-93 230v554q0 198 82 308l24 34l-24 30h-404z " />
<glyph unicode="V" horiz-adv-x="1266" d="M8 1302q66 -50 102 -95t66 -131l362 -1076h210l358 1084q34 98 102 184l30 34l-26 30h-352l-22 -64l42 -10q82 -18 86 -126q0 -58 -36 -170l-262 -806l-300 930q-22 70 -22 90q0 64 86 82l40 10l-20 64h-420z" />
<glyph unicode="W" horiz-adv-x="2016" d="M8 1302q66 -50 102 -95t66 -131l362 -1076h210l270 808l272 -808h212l356 1084q34 100 104 184l28 34l-24 30h-354l-20 -64l40 -10q82 -18 86 -126q0 -62 -38 -170l-258 -806l-304 930q-20 64 -20 90q0 66 82 82l44 10l-22 64h-416l-26 -30q68 -50 104 -96t64 -130 l16 -58l-276 -862l-300 930q-22 70 -22 90q0 64 86 82l40 10l-20 64h-420z" />
<glyph unicode="X" horiz-adv-x="1260" d="M20 64l20 -64h340l40 30l-20 34q-24 60 -24 82q0 42 42 106l194 294l202 -282q42 -66 42 -108q0 -64 -72 -82l-44 -10l22 -64h440l26 30q-84 70 -162 184l-336 476l328 468q52 80 142 100l44 10l-24 64h-340l-38 -30l18 -34q26 -52 26 -82q0 -46 -42 -106l-188 -284 l-192 272q-40 56 -40 110q0 64 70 80l44 10l-20 64h-442l-22 -30q82 -72 166 -198l318 -448l-332 -482q-50 -76 -144 -100z" />
<glyph unicode="Y" horiz-adv-x="1160" d="M8 1302q92 -68 186 -234l298 -522v-174q0 -110 -20 -177t-68 -131l-24 -34l24 -30h406l22 64l-40 10q-72 18 -98 53t-26 119v316l290 510q58 108 130 196l26 34l-22 30h-354l-20 -64l40 -10q78 -20 78 -98q0 -32 -22 -76l-208 -376l-202 352q-58 90 -58 116q0 64 86 82 l40 10l-20 64h-420z" />
<glyph unicode="Z" horiz-adv-x="1092" d="M36 0h856q60 0 76 -26l16 -20l36 20v318l-62 20l-14 -42q-26 -100 -65 -132t-137 -32h-416l732 1226h-678q-160 0 -212 38l-34 24l-28 -24v-330l62 -22l12 44q26 100 65 133t135 33h394z" />
<glyph unicode="[" horiz-adv-x="792" d="M234 -206h434v88l-148 22q-54 8 -77 28t-23 70v1226q0 48 23 68t77 30l148 20v90h-434v-1642z" />
<glyph unicode="\" horiz-adv-x="760" d="M0 1450l556 -1568h134l-558 1568h-132z" />
<glyph unicode="]" horiz-adv-x="792" d="M52 -118v-88h434v1642h-434v-90l148 -20q54 -10 77 -30t23 -68v-1226q0 -50 -23 -70t-77 -28z" />
<glyph unicode="^" horiz-adv-x="1272" d="M178 738h152l242 472l250 -472h150l-316 594h-162z" />
<glyph unicode="_" horiz-adv-x="728" d="M-48 -158h706q48 38 48 132h-706q-48 -42 -48 -132z" />
<glyph unicode="`" horiz-adv-x="590" d="M100 1292q0 -82 104 -132l210 -102l54 62l-290 290q-78 -38 -78 -118z" />
<glyph unicode="a" horiz-adv-x="1118" d="M82 426q0 -216 98 -334t238 -118q188 0 324 196q0 -104 35 -150t111 -46q98 0 206 118l-36 48q-46 -34 -92 -34q-58 0 -58 58v604q0 32 24 74l26 34l-24 24q-56 4 -182 24t-188 20q-222 0 -352 -139t-130 -379zM278 460q0 182 74 282t210 100q100 0 180 -54v-502 q-96 -168 -252 -168q-90 0 -151 82t-61 260z" />
<glyph unicode="b" horiz-adv-x="1092" d="M46 1340l18 -48h80q36 0 36 -40v-1160q122 -118 350 -118q206 0 343 148t137 374q0 198 -110 323t-282 125q-104 0 -188 -50q-18 -14 -18 -36q0 -14 9 -26t19 -12q2 0 37 11t81 11q116 0 186 -105t70 -277q0 -176 -73 -279t-197 -103q-112 0 -192 60v1254q0 28 -16 44 t-44 16q-54 0 -124 -32t-122 -80z" />
<glyph unicode="c" horiz-adv-x="942" d="M82 458q0 -210 127 -347t323 -137q198 0 334 154q4 2 4 16q0 18 -15 35t-31 17q-14 0 -18 -4q-112 -94 -244 -94t-209 101t-77 273q0 170 65 273t171 103q80 0 128 -43t48 -115q0 -46 -12 -80t-23 -51t-11 -23q0 -18 34 -18q80 0 131 50t51 130q0 108 -91 177t-235 69 q-204 0 -327 -132t-123 -354z" />
<glyph unicode="d" horiz-adv-x="1118" d="M82 426q0 -216 98 -334t238 -118q188 0 324 196q0 -104 35 -150t111 -46q98 0 206 118l-36 48q-46 -34 -92 -34q-58 0 -58 58v1228q0 28 -16 44t-44 16q-52 0 -121 -32t-121 -80l16 -48h82q36 0 36 -40v-330q-68 22 -176 22q-222 0 -352 -139t-130 -379zM278 460 q0 182 74 282t210 100q100 0 180 -54v-502q-96 -168 -252 -168q-90 0 -151 82t-61 260z" />
<glyph unicode="e" horiz-adv-x="980" d="M82 448q0 -214 117 -344t311 -130q226 0 368 166q8 16 8 18q0 18 -17 34t-33 16q-10 0 -16 -6q-108 -106 -272 -106q-134 0 -204 93t-70 259q0 196 67 301t187 105q82 0 129 -53t47 -127q0 -86 -62 -148t-174 -62q-44 0 -80 12t-40 12q-26 0 -26 -42q0 -44 71 -65 t133 -21q162 0 258 94t96 218q0 114 -82 193t-234 79q-218 0 -350 -136t-132 -360z" />
<glyph unicode="f" horiz-adv-x="618" d="M-194 -254q0 -86 65 -137t163 -51q166 0 250 112t84 306v830h218q44 32 44 116h-262v142q0 304 160 304q56 0 90 -36t34 -96q0 -46 -12 -80t-23 -50t-11 -22q0 -20 36 -20q78 0 130 51t52 129q0 92 -78 150t-200 58q-170 0 -257 -140t-87 -390l-120 -28q-30 -8 -37 -23 t-7 -65h164v-974q0 -96 -37 -145t-93 -49q-44 0 -73 33t-29 89q0 38 13 68t26 46t13 20q0 20 -34 20q-78 0 -130 -48t-52 -120z" />
<glyph unicode="g" horiz-adv-x="1116" d="M110 426q0 -190 97 -294t237 -104q186 0 326 196v-294q0 -160 -54 -255t-168 -95q-74 0 -117 50t-43 124q0 60 22 104t45 67t23 29q0 20 -34 20q-112 0 -175 -66t-63 -160q0 -108 83 -187t237 -79q192 0 301 125t109 353v808q0 40 26 74l22 34l-20 24q-58 4 -184 24 t-186 20q-224 0 -354 -139t-130 -379zM304 460q0 182 76 282t212 100q98 0 178 -54v-448q-94 -170 -250 -170q-94 0 -155 71t-61 219z" />
<glyph unicode="h" horiz-adv-x="1184" d="M66 1340l14 -48h84q36 0 36 -40v-1046q0 -72 -15 -101t-63 -37l-40 -10l22 -58h326l22 28l-22 30q-62 84 -62 238q0 226 75 366t195 140q86 0 123 -48t37 -146v-440q0 -106 33 -152t109 -46q102 0 210 118l-38 46q-46 -38 -92 -38q-54 0 -54 64v448q0 178 -56 257 t-192 79q-106 0 -204 -77t-146 -199v724q0 28 -16 44t-44 16q-50 0 -119 -32t-123 -80z" />
<glyph unicode="i" horiz-adv-x="578" d="M66 834l14 -46h84q36 0 36 -44v-574q0 -104 34 -150t110 -46q100 0 208 118l-34 48q-48 -40 -94 -40q-56 0 -56 64v724q0 26 -16 41t-44 15q-52 0 -120 -31t-122 -79zM170 1220q0 -34 41 -77t71 -43q36 0 77 43t41 77q0 36 -41 79t-77 43q-32 0 -72 -43t-40 -79z" />
<glyph unicode="j" horiz-adv-x="540" d="M-206 -328q0 -86 65 -138t165 -52q166 0 251 113t85 307v986q0 26 -16 41t-44 15q-52 0 -121 -31t-121 -79l14 -46h84q36 0 36 -44v-986q0 -94 -37 -144t-93 -50q-44 0 -73 33t-29 91q0 38 12 68t25 45t13 19q0 20 -34 20q-80 0 -131 -48t-51 -120zM162 1220 q0 -34 40 -77t72 -43q34 0 76 43t42 77q0 36 -42 79t-76 43q-32 0 -72 -43t-40 -79z" />
<glyph unicode="k" horiz-adv-x="1082" d="M66 1340l14 -48h84q36 0 36 -40v-1046q0 -72 -15 -101t-63 -37l-40 -10l22 -58h326l22 28l-22 30q-62 78 -62 238q0 236 81 380t219 144q60 0 93 -38t33 -94q0 -74 -57 -134t-157 -60q-44 0 -79 9t-39 9q-28 0 -28 -36q0 -30 34 -38l18 -6l138 -262q32 -60 48 -86t43 -57 t57 -42t74 -11q114 0 200 118l-40 48q-42 -48 -98 -48q-50 0 -78 52l-142 276q128 14 201 97t73 187q0 102 -67 171t-189 69q-102 0 -196 -77t-142 -199v724q0 28 -16 44t-44 16q-50 0 -119 -32t-123 -80z" />
<glyph unicode="l" horiz-adv-x="558" d="M46 1340l18 -48h80q36 0 36 -40v-1082q0 -104 34 -150t112 -46q102 0 206 118l-36 48q-42 -40 -92 -40q-56 0 -56 64l4 1228q0 28 -16 44t-44 16q-54 0 -124 -32t-122 -80z" />
<glyph unicode="m" horiz-adv-x="1744" d="M74 818l18 -50h80q36 0 36 -40v-522q0 -72 -15 -101t-63 -37l-36 -10l18 -58h326l22 28l-22 30q-60 84 -60 238q0 226 74 366t194 140q140 0 140 -190v-612h224l22 28q-48 58 -64 116t-16 152v24q4 216 78 349t190 133q138 0 138 -190v-442q0 -106 33 -151t111 -45 q98 0 206 118l-36 48q-46 -40 -94 -40q-52 0 -52 64v448q0 172 -57 252t-181 80q-100 0 -194 -77t-142 -199q-8 144 -66 210t-172 66q-102 0 -195 -77t-141 -199v202q0 26 -16 42t-42 16q-52 0 -122 -31t-124 -79z" />
<glyph unicode="n" horiz-adv-x="1192" d="M74 818l18 -50h80q36 0 36 -40v-522q0 -72 -15 -101t-63 -37l-36 -10l18 -58h326l22 28l-22 30q-60 84 -60 238q0 226 74 366t194 140q160 0 160 -190v-442q0 -106 33 -151t109 -45q106 0 210 118l-36 48q-46 -40 -92 -40q-56 0 -56 64v448q0 172 -60 252t-188 80 q-106 0 -203 -77t-145 -199v202q0 26 -16 42t-42 16q-52 0 -122 -31t-124 -79z" />
<glyph unicode="o" horiz-adv-x="1072" d="M82 460q0 -222 123 -354t331 -132t331 132t123 354t-123 353t-331 131t-331 -130t-123 -354zM276 458q0 176 73 283t193 107q90 0 151 -69t81 -152t20 -171q0 -172 -73 -277t-189 -105q-118 0 -187 104t-69 280z" />
<glyph unicode="p" horiz-adv-x="1104" d="M58 790l96 -22q38 -10 38 -62v-902q0 -154 -62 -240l-22 -30l22 -26h326l18 56l-38 8q-48 10 -63 39t-15 101v1040q92 72 208 72t187 -101t71 -263q0 -168 -71 -277t-185 -109q-48 0 -88 15t-42 15q-28 0 -28 -46q0 -24 18 -34q76 -50 184 -50q176 0 292 149t116 373 q0 198 -111 323t-283 125q-150 0 -268 -114v8q0 86 -46 86q-60 0 -143 -25t-111 -51v-58z" />
<glyph unicode="q" horiz-adv-x="1092" d="M82 426q0 -216 98 -334t238 -118q188 0 324 196v-440q0 -60 -16 -88t-60 -46l-58 -28v-60h348l20 26l-18 30q-46 66 -46 218v986q0 26 24 74l24 34l-22 24q-54 4 -183 24t-191 20q-222 0 -352 -139t-130 -379zM278 460q0 182 74 282t210 100q100 0 180 -54v-502 q-96 -168 -252 -168q-90 0 -151 82t-61 260z" />
<glyph unicode="r" horiz-adv-x="810" d="M74 818l18 -50h80q36 0 36 -40v-522q0 -72 -15 -101t-63 -37l-36 -10l18 -58h326l22 28l-22 30q-60 82 -60 232q0 138 21 244t54 163t66 85t65 28q28 0 44 -20t16 -52q0 -42 -25 -84t-25 -44q0 -18 36 -18q78 0 129 47t51 117q0 88 -50 138t-128 50t-144 -76t-98 -200 h-12v202q0 26 -16 42t-42 16q-52 0 -122 -31t-124 -79z" />
<glyph unicode="s" horiz-adv-x="892" d="M100 206q0 -104 92 -168t232 -64q166 0 267 76t101 204q0 42 -19 80t-42 62t-70 52t-75 41t-84 37q-106 40 -163 83t-57 113q0 60 44 97t120 37q60 0 107 -33t47 -101q0 -34 -15 -65t-15 -37q0 -26 40 -26q68 0 112 46t44 116q0 88 -86 138t-220 50q-146 0 -242 -69 t-96 -179q0 -62 25 -112t76 -87t91 -57t106 -48q64 -28 101 -47t69 -54t32 -77q0 -66 -49 -107t-127 -41q-68 0 -122 40t-54 118q0 36 12 69t12 37q0 22 -38 22q-68 0 -112 -42t-44 -104z" />
<glyph unicode="t" horiz-adv-x="630" d="M20 806h162v-652q0 -84 43 -132t119 -48q58 0 125 38t115 100l-36 50q-66 -60 -124 -60q-38 0 -54 23t-16 81v600h198q42 32 42 116h-240v250q-54 0 -69 -7t-19 -37q-20 -94 -62 -152t-138 -82q-30 -8 -38 -23t-8 -65z" />
<glyph unicode="u" horiz-adv-x="1172" d="M58 834l14 -46h84q36 0 36 -44v-464q0 -146 74 -226t208 -80q102 0 187 49t129 131q0 -94 33 -137t107 -43q110 0 206 118l-36 48q-42 -34 -92 -34t-50 58v780l-228 -22l-24 -28l24 -28q42 -74 57 -150t15 -212q0 -190 -70 -298t-194 -108q-178 0 -178 228v562 q0 26 -16 41t-44 15q-58 0 -127 -31t-115 -79z" />
<glyph unicode="v" horiz-adv-x="1024" d="M0 834l18 -46h80q18 0 25 -9t11 -35l60 -390q30 -214 95 -297t207 -83q170 0 290 205t120 569q0 86 -10 196l-222 -24l-20 -24l16 -28q84 -130 84 -324q0 -186 -59 -318t-175 -132q-60 0 -94 50t-50 162l-82 582q-10 56 -60 56q-52 0 -118 -31t-116 -79z" />
<glyph unicode="w" horiz-adv-x="1508" d="M0 834l18 -46h80q18 0 25 -9t11 -35l60 -390q30 -214 95 -297t207 -83q174 0 274 232q34 -126 95 -179t167 -53q152 0 258 205t106 569q0 64 -8 196l-218 -22l-20 -24l18 -28q82 -136 82 -324q0 -180 -57 -316t-147 -136q-64 0 -98 49t-50 163l-40 262q12 86 12 180 q0 96 -12 196l-216 -22l-22 -24l18 -28q82 -132 82 -324q0 -180 -55 -316t-145 -136q-60 0 -94 50t-50 162l-82 582q-10 56 -60 56q-52 0 -118 -31t-116 -79z" />
<glyph unicode="x" horiz-adv-x="1024" d="M36 860l42 -54q44 24 70 24q46 0 78 -52l204 -348q-172 -182 -388 -392l24 -38h288l20 28l-34 30q-36 30 -36 60q0 58 164 242l152 -256q70 -130 198 -130q88 0 172 86l-44 54q-34 -22 -68 -22q-48 0 -78 52l-206 350q94 102 382 390l-18 38h-290l-24 -28l40 -28 q34 -34 34 -60q0 -58 -164 -242l-148 254q-68 126 -198 126q-94 0 -172 -84z" />
<glyph unicode="y" horiz-adv-x="1128" d="M58 836l14 -46h84q36 0 36 -44v-410q0 -146 73 -227t205 -81q104 0 189 47t129 129v-274q0 -160 -55 -255t-169 -95q-74 0 -118 50t-44 124q0 60 22 104t45 67t23 29q0 20 -34 20q-110 0 -173 -66t-63 -160q0 -106 84 -186t234 -80q192 0 302 125t110 353v986l-226 -22 l-22 -28l22 -28q48 -62 60 -136t12 -226q0 -168 -70 -260t-194 -92q-174 0 -174 224v512q0 26 -16 41t-44 15q-58 0 -127 -31t-115 -79z" />
<glyph unicode="z" horiz-adv-x="888" d="M62 58l18 -58h476q152 0 222 -42l22 20v286l-58 18l-22 -96q-8 -46 -39 -63t-101 -17h-290l488 706l50 30q0 50 -36 80h-462q-156 0 -224 46l-20 -26v-284l58 -20l22 98q10 48 38 63t100 15h276z" />
<glyph unicode="{" horiz-adv-x="648" d="M0 578q80 -16 111 -77t31 -205q0 -134 36 -237t124 -176t222 -89l12 82q-96 22 -143 137t-47 283q0 278 -202 318q202 44 202 316q0 170 47 286t143 138l-12 82q-198 -24 -290 -161t-92 -345q0 -144 -31 -205t-111 -77v-70z" />
<glyph unicode="|" horiz-adv-x="718" d="M234 -154h186v1534h-186v-1534z" />
<glyph unicode="}" horiz-adv-x="648" d="M48 -124l14 -82q134 16 221 89t123 176t36 237q0 144 32 205t112 77v70q-80 16 -112 77t-32 205q0 208 -91 345t-289 161l-14 -82q96 -22 143 -138t47 -286q0 -272 202 -316q-202 -40 -202 -318q0 -168 -47 -283t-143 -137z" />
<glyph unicode="~" horiz-adv-x="1272" d="M182 598q74 -60 182 -60q80 0 210 60t206 60q100 0 188 -60v140q-74 60 -178 60q-80 0 -211 -60t-209 -60q-96 0 -188 60v-140z" />
<glyph unicode="&#xa1;" horiz-adv-x="454" d="M110 -456q44 -46 116 -46q74 0 118 46q0 206 -70 926q-10 84 -48 84t-46 -84q-70 -720 -70 -926zM110 828q0 -38 41 -81t75 -43t74 43t40 81q0 34 -40 76t-74 42t-75 -42t-41 -76z" />
<glyph unicode="&#xa2;" horiz-adv-x="996" d="M80 664q0 -194 99 -324t263 -154v-342q84 0 116 48v294q166 18 280 150q4 4 4 18q0 18 -14 34t-30 16q-12 0 -18 -6q-112 -94 -242 -94q-122 0 -194 99t-72 265q0 174 65 282t171 108q80 0 128 -44t48 -118q0 -44 -12 -79t-23 -52t-11 -23q0 -18 34 -18q82 0 133 51 t51 131q0 102 -84 172t-214 76v334q-80 0 -116 -46v-296q-168 -30 -265 -159t-97 -323z" />
<glyph unicode="&#xa3;" horiz-adv-x="1104" d="M58 80l46 -80h864q62 50 62 168h-736q134 174 134 392h348q44 36 44 116h-402q-38 168 -38 244q0 336 252 336q78 0 135 -45t57 -121q0 -44 -14 -80t-28 -56t-14 -24q0 -16 8 -20t30 -4q84 0 142 57t58 141q0 120 -110 187t-264 67q-228 0 -339 -113t-111 -299 q0 -74 54 -270h-138q-40 -30 -40 -116h206q8 -68 8 -102q0 -100 -57 -205t-157 -173z" />
<glyph unicode="&#xa4;" horiz-adv-x="1180" d="M58 1126l212 -218q-64 -108 -64 -238t64 -238l-182 -184q0 -62 52 -110l212 210q98 -72 234 -72q148 0 244 78l182 -186q56 0 112 52l-218 220q62 110 62 230q0 124 -62 234l188 190q0 64 -52 110l-212 -212q-106 76 -244 76q-136 0 -238 -74l-180 182q-66 0 -110 -50z M390 666q0 140 57 221t151 81q86 0 136 -77t50 -215q0 -140 -58 -220t-152 -80q-86 0 -135 76t-49 214z" />
<glyph unicode="&#xa5;" horiz-adv-x="1160" d="M26 1302q56 -42 93 -91t91 -143l126 -220h-170q-44 -30 -44 -116h280l104 -184h-340q-44 -30 -44 -116h386v-60q0 -112 -20 -179t-66 -129l-24 -34l24 -30h406l20 64l-40 10q-72 18 -97 53t-25 119v186h344q44 34 44 116h-388v14l94 170h250q44 34 44 116h-228l128 224 q58 108 130 196l28 34l-24 30h-352l-22 -64l40 -10q32 -8 56 -34t24 -64q0 -32 -22 -76l-208 -376l-202 352q-58 90 -58 116q0 66 84 82l42 10l-22 64h-420z" />
<glyph unicode="&#xa6;" horiz-adv-x="650" d="M234 -154h186v544h-186v-544zM234 840h186v540h-186v-540z" />
<glyph unicode="&#xa7;" horiz-adv-x="814" d="M64 -268q0 -92 77 -149t199 -57q176 0 260 100t84 236q0 164 -162 358l-286 344q-14 -44 -14 -96q0 -150 164 -348q96 -112 134 -186t38 -142q0 -86 -52 -135t-130 -49q-60 0 -100 36t-40 96q0 44 11 79t22 52t11 23q0 18 -36 18q-78 0 -129 -51t-51 -129zM132 1018 q0 -162 162 -358l284 -340q16 60 16 92q0 152 -164 348q-96 116 -134 190t-38 142q0 84 51 132t129 48q60 0 100 -37t40 -93q0 -46 -11 -80t-22 -50t-11 -22q0 -22 34 -22q78 0 131 52t53 132q0 90 -78 147t-200 57q-176 0 -259 -99t-83 -239z" />
<glyph unicode="&#xa8;" horiz-adv-x="780" d="M100 1220q0 -34 40 -77t72 -43q34 0 77 43t43 77q0 36 -43 79t-77 43t-73 -43t-39 -79zM452 1220q0 -34 40 -77t72 -43q34 0 77 43t43 77q0 36 -43 79t-77 43t-73 -43t-39 -79z" />
<glyph unicode="&#xa9;" horiz-adv-x="1442" d="M186 924q0 -220 158 -378t378 -158q222 0 379 158t157 378t-157 378t-379 158q-220 0 -378 -158t-158 -378zM234 924q0 202 143 345t345 143t344 -143t142 -345t-142 -345t-344 -143t-345 144t-143 344zM400 930q0 -164 85 -270t245 -106q152 0 244 140l-48 40 q-64 -100 -190 -100q-94 0 -150 84t-56 212q0 126 48 216t152 90q82 0 140 -74l24 -96q48 0 64 26v200h-48l-16 -32q-70 44 -164 44q-160 0 -245 -106t-85 -268z" />
<glyph unicode="&#xaa;" horiz-adv-x="738" d="M82 838q0 -74 52 -122t130 -48q128 0 192 100q12 -100 106 -100q68 0 158 90l-34 48q-44 -26 -66 -26q-26 0 -26 30v308q0 124 -55 181t-175 57q-100 0 -173 -52t-73 -124q0 -32 21 -52t51 -20q44 0 74 30q0 140 100 140q90 0 90 -136v-108q-38 8 -100 8q-126 0 -199 -54 t-73 -150zM234 856q0 112 146 112q60 0 74 -6q-2 -84 -39 -138t-95 -54q-86 0 -86 86z" />
<glyph unicode="&#xab;" horiz-adv-x="938" d="M94 520q0 -50 188 -360q10 -18 16 -28q102 12 160 86q-42 76 -254 302q214 224 254 298q-60 76 -160 84q-124 -204 -164 -278t-40 -104zM480 520q0 -48 178 -338q20 -32 30 -50q100 14 156 86q-46 86 -250 302q206 214 250 298q-58 76 -156 84q-128 -208 -168 -280 t-40 -102z" />
<glyph unicode="&#xac;" horiz-adv-x="1152" d="M182 594h660v-284h126v422h-786v-138z" />
<glyph unicode="&#xad;" horiz-adv-x="728" d="M62 468l486 18q50 42 50 132l-490 -20q-46 -40 -46 -130z" />
<glyph unicode="&#xae;" horiz-adv-x="1442" d="M186 924q0 -220 158 -378t378 -158q222 0 379 158t157 378t-157 378t-379 158q-220 0 -378 -158t-158 -378zM234 924q0 202 143 345t345 143t344 -143t142 -345t-142 -345t-344 -143t-345 144t-143 344zM452 566h214q28 20 28 62l-62 18v224h56q46 0 64 -40l86 -166 q2 -6 6 -13t6 -11t2 -8t-10 -34l-8 -14l18 -18h160q24 16 24 56l-56 20l-112 210q-4 6 -10 14t-15 17l-13 13q66 28 100 82t34 116q0 88 -67 143t-213 55h-206q-26 -16 -26 -60l60 -24v-544q0 -20 -18 -30l-42 -24v-44zM632 936v252q0 30 52 30q152 0 152 -130 q0 -66 -36 -109t-110 -43h-58z" />
<glyph unicode="&#xaf;" horiz-adv-x="754" d="M104 1144h500q48 42 48 148h-498q-50 -42 -50 -148z" />
<glyph unicode="&#xb0;" horiz-adv-x="806" d="M74 1012q0 -156 89 -250t239 -94q152 0 241 94t89 250t-89 250t-241 94q-150 0 -239 -94t-89 -250zM232 1006q0 122 50 192t130 70q74 0 117 -64t43 -186q0 -120 -50 -191t-128 -71q-76 0 -119 65t-43 185z" />
<glyph unicode="&#xb1;" horiz-adv-x="1152" d="M182 0h786v138h-786v-138zM182 594h324v-324h138v324h324v138h-324v326h-138v-326h-324v-138z" />
<glyph unicode="&#xb2;" horiz-adv-x="718" d="M52 604l34 -70h524q48 40 48 126h-394q176 144 274 260t98 220t-76 161t-208 57q-114 0 -194 -54t-80 -150q0 -56 39 -92t97 -36q44 0 44 20q0 8 -17 42t-17 58q0 58 37 91t87 33t86 -33t36 -95q0 -106 -82 -218t-336 -320z" />
<glyph unicode="&#xb3;" horiz-adv-x="718" d="M72 710q0 -90 80 -139t192 -49q138 0 218 59t80 167q0 72 -43 130t-121 86q142 62 142 192q0 96 -83 149t-193 53q-104 0 -177 -47t-73 -133q0 -54 39 -89t99 -35q40 0 40 24q-6 14 -10 20q-20 40 -20 74q0 48 29 74t71 26q48 0 83 -31t35 -87q0 -140 -192 -176 q-52 -8 -63 -18t-11 -32q0 -30 36 -30q12 0 14 2q56 8 76 8q64 0 103 -28t48 -58t9 -66q0 -68 -40 -105t-96 -37q-50 0 -87 29t-37 77q0 28 22 72q6 20 12 20q0 18 -9 22t-37 4q-58 0 -97 -36t-39 -92z" />
<glyph unicode="&#xb4;" horiz-adv-x="534" d="M118 1120l52 -62l210 102q104 50 104 132q0 78 -80 118z" />
<glyph unicode="&#xb5;" horiz-adv-x="1140" d="M40 790l98 -22q40 -10 40 -62v-916q0 -60 -24 -94l-24 -36l24 -24l190 -24v424q64 -62 162 -62q82 0 158 51t116 129q0 -180 146 -180l20 26v924l-190 -24l-24 -24l24 -34q24 -36 24 -84v-352q0 -134 -70 -221t-178 -87q-188 0 -188 228v512q0 86 -44 86q-58 0 -143 -25 t-117 -51v-58z" />
<glyph unicode="&#xb6;" horiz-adv-x="1144" d="M124 1004q0 -212 196 -440l294 -344q174 -200 174 -328q0 -86 -52 -135t-130 -49q-62 0 -102 36t-40 96q0 44 11 79t22 52t11 23q0 18 -36 18q-78 0 -129 -50t-51 -130q0 -92 77 -149t199 -57q176 0 258 100t82 238v1216q0 30 24 74l26 32l-24 22q-40 4 -183 27t-233 23 q-174 0 -284 -98t-110 -256zM268 1054q0 94 58 148t136 54q138 0 207 -90t69 -244v-588l-284 330q-186 216 -186 390z" />
<glyph unicode="&#xb7;" horiz-adv-x="354" d="M62 596q0 -34 40 -77t72 -43q34 0 76 43t42 77q0 38 -42 81t-76 43t-73 -43t-39 -81z" />
<glyph unicode="&#xb8;" horiz-adv-x="648" d="M102 -404q0 -66 60 -104t142 -38q108 0 180 62t72 152q0 100 -61 155t-149 55q-38 0 -70 -8l146 188h-76l-188 -248l36 -32q52 30 100 30q60 0 93 -40t33 -98q0 -54 -32 -96t-86 -42q-30 0 -53 20t-23 52t14 55t14 27q0 18 -34 18q-48 0 -83 -30t-35 -78z" />
<glyph unicode="&#xb9;" horiz-adv-x="592" d="M26 1214q38 -80 104 -94l110 70v-486q0 -44 -11 -59t-47 -23l-62 -18l22 -58h288l24 30l-22 28q-46 50 -46 176v506l34 18q-30 50 -68 60z" />
<glyph unicode="&#xba;" horiz-adv-x="806" d="M74 1012q0 -156 89 -250t239 -94q152 0 241 94t89 250t-89 250t-241 94q-150 0 -239 -94t-89 -250zM232 1012q0 120 43 190t117 70q80 0 130 -75t50 -195q0 -114 -43 -180t-117 -66q-80 0 -130 70t-50 186z" />
<glyph unicode="&#xbb;" horiz-adv-x="938" d="M94 218q58 -74 160 -86q178 296 198 352q6 20 6 36q0 30 -40 104t-164 278q-100 -8 -160 -84q38 -74 252 -298q-212 -226 -252 -302zM480 218q58 -72 160 -86q122 200 163 276t41 112q0 50 -204 382q-100 -8 -160 -84q40 -74 254 -298q-212 -226 -254 -302z" />
<glyph unicode="&#xbc;" horiz-adv-x="1888" d="M144 1214q38 -80 104 -94l112 70v-486q0 -44 -11 -59t-47 -23l-64 -18l24 -58h286l24 30l-20 28q-48 54 -48 176v506l34 18q-30 50 -68 60zM544 0h130l560 1332h-134zM1054 176h392v-18q0 -44 -10 -60t-44 -24l-64 -16l24 -58h286l22 30l-20 28q-36 38 -44 118h64 q38 30 38 94h-102v278l-152 -16l-24 -26q26 -36 26 -100v-136h-234l232 510l-34 28h-92z" />
<glyph unicode="&#xbd;" horiz-adv-x="1888" d="M144 1214q38 -80 104 -94l112 70v-486q0 -44 -11 -59t-47 -23l-64 -18l24 -58h286l24 30l-20 28q-48 54 -48 176v506l34 18q-30 50 -68 60zM508 0h130l560 1332h-134zM1076 70l34 -70h526q48 40 48 126h-394q176 144 274 260t98 220t-77 161t-209 57q-112 0 -192 -54 t-80 -150q0 -56 39 -92t97 -36q44 0 44 20q0 8 -17 42t-17 58q0 58 37 91t87 33t86 -33t36 -95q0 -106 -83 -218t-337 -320z" />
<glyph unicode="&#xbe;" horiz-adv-x="1888" d="M132 710q0 -90 80 -139t192 -49q138 0 218 59t80 167q0 72 -43 130t-121 86q140 62 140 192q0 96 -82 149t-192 53q-104 0 -177 -47t-73 -133q0 -54 39 -89t99 -35q40 0 40 24q-6 14 -10 20q-20 40 -20 74q0 48 29 74t71 26q48 0 83 -31t35 -87q0 -140 -192 -176 q-52 -8 -63 -18t-11 -32q0 -30 36 -30q12 0 14 2q56 8 74 8q92 0 127 -47t35 -105q0 -68 -40 -105t-96 -37q-50 0 -88 29t-38 77q0 24 24 72q6 20 10 20q0 18 -8 22t-36 4q-58 0 -97 -36t-39 -92zM602 0h130l560 1332h-134zM1054 176h392v-18q0 -44 -10 -60t-44 -24l-64 -16 l24 -58h286l22 30l-20 28q-36 38 -44 118h64q38 30 38 94h-102v278l-152 -16l-24 -26q26 -36 26 -100v-136h-234l232 510l-34 28h-92z" />
<glyph unicode="&#xbf;" horiz-adv-x="996" d="M118 -162q0 -150 113 -238t281 -88q172 0 282 72t110 186q0 80 -51 132t-131 52q-34 0 -34 -22q0 -6 10 -23t21 -51t11 -80q0 -74 -47 -116t-127 -42q-104 0 -165 58t-61 170q0 116 71 241t293 315l-116 118h-36l-8 -36q-16 -52 -49 -92t-107 -108q-260 -254 -260 -448z M448 828q0 -38 41 -81t77 -43q34 0 73 43t39 81q0 34 -40 76t-72 42q-34 0 -76 -42t-42 -76z" />
<glyph unicode="&#xc0;" horiz-adv-x="1308" d="M-30 64l24 -64h340l34 30l-14 34q-26 44 -26 112t40 194l46 136h428l88 -260q22 -74 22 -88q0 -64 -82 -84l-44 -10l20 -64h420l24 30q-68 52 -103 96t-65 132l-374 1074h-356l-24 -64l44 -10q82 -18 82 -82q0 -26 -20 -90l-292 -840q-28 -86 -61 -118t-109 -54zM454 622 l172 520l178 -520h-350zM470 1702q0 -82 104 -132l212 -102l52 62l-290 292q-78 -38 -78 -120z" />
<glyph unicode="&#xc1;" horiz-adv-x="1308" d="M-30 64l24 -64h340l34 30l-14 34q-26 44 -26 112t40 194l46 136h428l88 -260q22 -74 22 -88q0 -64 -82 -84l-44 -10l20 -64h420l24 30q-68 52 -103 96t-65 132l-374 1074h-356l-24 -64l44 -10q82 -18 82 -82q0 -26 -20 -90l-292 -840q-28 -86 -61 -118t-109 -54zM454 622 l172 520l178 -520h-350zM472 1530l54 -62l210 102q102 50 102 132t-78 120z" />
<glyph unicode="&#xc2;" horiz-adv-x="1308" d="M-30 64l24 -64h340l34 30l-14 34q-26 44 -26 112t40 194l46 136h428l88 -260q22 -74 22 -88q0 -64 -82 -84l-44 -10l20 -64h420l24 30q-68 52 -103 96t-65 132l-374 1074h-356l-24 -64l44 -10q82 -18 82 -82q0 -26 -20 -90l-292 -840q-28 -86 -61 -118t-109 -54z M400 1518l62 -50l192 152l194 -152l60 50q-58 102 -127 187t-103 105h-48q-38 -22 -105 -106t-125 -186zM454 622l172 520l178 -520h-350z" />
<glyph unicode="&#xc3;" horiz-adv-x="1308" d="M-30 64l24 -64h340l34 30l-14 34q-26 44 -26 112t40 194l46 136h428l88 -260q22 -74 22 -88q0 -64 -82 -84l-44 -10l20 -64h420l24 30q-68 52 -103 96t-65 132l-374 1074h-356l-24 -64l44 -10q82 -18 82 -82q0 -26 -20 -90l-292 -840q-28 -86 -61 -118t-109 -54z M352 1566l66 -60q66 72 122 72q26 0 79 -32t99 -32q52 0 115 49t121 131l-62 60q-78 -76 -128 -76q-26 0 -79 33t-95 33q-106 0 -238 -178zM454 622l172 520l178 -520h-350z" />
<glyph unicode="&#xc4;" horiz-adv-x="1308" d="M-30 64l24 -64h340l34 30l-14 34q-26 44 -26 112t40 194l46 136h428l88 -260q22 -74 22 -88q0 -64 -82 -84l-44 -10l20 -64h420l24 30q-68 52 -103 96t-65 132l-374 1074h-356l-24 -64l44 -10q82 -18 82 -82q0 -26 -20 -90l-292 -840q-28 -86 -61 -118t-109 -54z M364 1630q0 -34 40 -77t72 -43q34 0 77 43t43 77q0 36 -43 80t-77 44q-32 0 -72 -44t-40 -80zM454 622l172 520l178 -520h-350zM714 1630q0 -34 41 -77t73 -43q34 0 76 43t42 77q0 36 -42 80t-76 44t-74 -44t-40 -80z" />
<glyph unicode="&#xc5;" horiz-adv-x="1308" d="M-30 64l24 -64h340l34 30l-14 34q-26 44 -26 112t40 194l46 136h428l88 -260q22 -74 22 -88q0 -64 -82 -84l-44 -10l20 -64h420l24 30q-68 52 -103 96t-65 132l-374 1074h-356l-24 -64l44 -10q82 -18 82 -82q0 -26 -20 -90l-292 -840q-28 -86 -61 -118t-109 -54z M442 1630q0 -86 56 -141t154 -55q102 0 158 55t56 141q0 88 -56 144t-158 56q-98 0 -154 -56t-56 -144zM454 622l172 520l178 -520h-350zM572 1630q0 48 22 79t58 31q38 0 59 -31t21 -79q0 -46 -21 -76t-59 -30q-36 0 -58 31t-22 75z" />
<glyph unicode="&#xc6;" horiz-adv-x="1788" d="M-26 64l22 -64h342l34 30l-16 34q-24 60 -24 82q0 68 38 140l156 282h368v-334q0 -82 -23 -113t-91 -51l-40 -10l20 -60h782q62 0 78 -26l14 -20l36 20v318l-62 20l-10 -42q-28 -100 -67 -132t-137 -32h-200q-72 0 -95 26t-23 114v322h158q102 0 144 -21t58 -85l10 -42 l64 22v316l-38 22l-14 -22q-60 -86 -148 -86h-234v414q0 86 23 114t95 28h180q98 0 137 -33t65 -133l12 -44l64 22v330l-30 24l-34 -24q-48 -38 -212 -38h-570l-644 -1158q-44 -74 -144 -100zM584 672l310 562v-562h-310z" />
<glyph unicode="&#xc7;" horiz-adv-x="1144" d="M66 664q0 -266 120 -452t350 -226l-132 -176l36 -32q52 30 100 30q60 0 93 -40t33 -98q0 -54 -32 -96t-86 -42q-30 0 -53 20t-23 52t14 55t14 27q0 18 -34 18q-48 0 -83 -30t-35 -78q0 -66 61 -104t143 -38q106 0 178 62t72 152q0 100 -60 155t-148 55q-38 0 -70 -8 l80 106q8 0 26 -1t28 -1q270 0 434 234q4 12 4 16q0 18 -20 35t-40 17q-6 0 -12 -8q-112 -166 -350 -166q-180 0 -290 162t-110 400q0 110 21 210t64 189t122 141t183 52q106 0 171 -55t65 -141q0 -44 -14 -82t-29 -59t-15 -27q0 -22 42 -22q84 0 140 60t56 156 q0 122 -116 197t-300 75q-292 0 -445 -195t-153 -499z" />
<glyph unicode="&#xc8;" horiz-adv-x="1128" d="M82 60l22 -60h782q54 0 78 -26l14 -20l36 20v318l-62 20l-12 -42q-26 -98 -65 -131t-137 -33h-200q-72 0 -95 26t-23 114v378h156q102 0 144 -20t60 -84l12 -46l62 22v318l-36 20l-16 -20q-58 -84 -146 -84h-236v356q0 86 23 114t95 28h182q96 0 135 -33t65 -133l10 -44 l64 22v330l-28 24l-36 -24q-48 -38 -210 -38h-566l-26 -30l26 -34q82 -110 82 -308v-726q0 -82 -23 -113t-91 -51zM390 1702q0 -82 104 -132l210 -102l54 62l-290 292q-78 -38 -78 -120z" />
<glyph unicode="&#xc9;" horiz-adv-x="1128" d="M82 60l22 -60h782q54 0 78 -26l14 -20l36 20v318l-62 20l-12 -42q-26 -98 -65 -131t-137 -33h-200q-72 0 -95 26t-23 114v378h156q102 0 144 -20t60 -84l12 -46l62 22v318l-36 20l-16 -20q-58 -84 -146 -84h-236v356q0 86 23 114t95 28h182q96 0 135 -33t65 -133l10 -44 l64 22v330l-28 24l-36 -24q-48 -38 -210 -38h-566l-26 -30l26 -34q82 -110 82 -308v-726q0 -82 -23 -113t-91 -51zM446 1530l54 -62l210 102q102 50 102 132t-78 120z" />
<glyph unicode="&#xca;" horiz-adv-x="1128" d="M82 60l22 -60h782q54 0 78 -26l14 -20l36 20v318l-62 20l-12 -42q-26 -98 -65 -131t-137 -33h-200q-72 0 -95 26t-23 114v378h156q102 0 144 -20t60 -84l12 -46l62 22v318l-36 20l-16 -20q-58 -84 -146 -84h-236v356q0 86 23 114t95 28h182q96 0 135 -33t65 -133l10 -44 l64 22v330l-28 24l-36 -24q-48 -38 -210 -38h-566l-26 -30l26 -34q82 -110 82 -308v-726q0 -82 -23 -113t-91 -51zM338 1518l62 -50l192 152l196 -152l58 50q-58 104 -126 188t-102 104h-50q-38 -22 -105 -106t-125 -186z" />
<glyph unicode="&#xcb;" horiz-adv-x="1128" d="M82 60l22 -60h782q54 0 78 -26l14 -20l36 20v318l-62 20l-12 -42q-26 -98 -65 -131t-137 -33h-200q-72 0 -95 26t-23 114v378h156q102 0 144 -20t60 -84l12 -46l62 22v318l-36 20l-16 -20q-58 -84 -146 -84h-236v356q0 86 23 114t95 28h182q96 0 135 -33t65 -133l10 -44 l64 22v330l-28 24l-36 -24q-48 -38 -210 -38h-566l-26 -30l26 -34q82 -110 82 -308v-726q0 -82 -23 -113t-91 -51zM300 1630q0 -34 40 -77t72 -43q34 0 77 43t43 77q0 36 -43 80t-77 44q-32 0 -72 -44t-40 -80zM652 1630q0 -34 40 -77t72 -43q34 0 77 43t43 77q0 36 -43 80 t-77 44q-32 0 -72 -44t-40 -80z" />
<glyph unicode="&#xcc;" horiz-adv-x="654" d="M74 64l22 -64h456l18 60l-38 10q-68 20 -90 51t-22 113v726q0 200 84 308l24 34l-24 30h-408l-22 -64l44 -10q70 -20 94 -54t24 -118v-840q0 -86 -23 -118t-95 -54zM142 1702q0 -82 104 -132l212 -102l52 62l-288 292q-80 -40 -80 -120z" />
<glyph unicode="&#xcd;" horiz-adv-x="654" d="M74 64l22 -64h456l18 60l-38 10q-68 20 -90 51t-22 113v726q0 200 84 308l24 34l-24 30h-408l-22 -64l44 -10q70 -20 94 -54t24 -118v-840q0 -86 -23 -118t-95 -54zM160 1530l52 -62l212 102q102 50 102 132q0 80 -80 120z" />
<glyph unicode="&#xce;" horiz-adv-x="654" d="M74 64l22 -64h456l18 60l-38 10q-68 20 -90 51t-22 113v726q0 200 84 308l24 34l-24 30h-408l-22 -64l44 -10q70 -20 94 -54t24 -118v-840q0 -86 -23 -118t-95 -54zM74 1518l62 -50l192 152l196 -152l60 50q-58 102 -127 187t-103 105h-50q-38 -22 -105 -106t-125 -186z " />
<glyph unicode="&#xcf;" horiz-adv-x="654" d="M36 1630q0 -34 40 -77t72 -43q34 0 77 43t43 77q0 36 -43 80t-77 44q-32 0 -72 -44t-40 -80zM74 64l22 -64h456l18 60l-38 10q-68 20 -90 51t-22 113v726q0 200 84 308l24 34l-24 30h-408l-22 -64l44 -10q70 -20 94 -54t24 -118v-840q0 -86 -23 -118t-95 -54zM388 1630 q0 -34 40 -77t72 -43q34 0 77 43t43 77q0 36 -43 80t-77 44q-32 0 -72 -44t-40 -80z" />
<glyph unicode="&#xd0;" d="M20 618h216v-392q0 -70 -30 -102t-88 -50l-44 -10l22 -64h582q298 0 457 186t159 478q0 116 -22 214t-75 188t-134 154t-207 101t-288 37q-270 0 -502 -82l22 -70h106q42 0 42 -42v-432h-174q-42 -30 -42 -114zM420 326v292h318q42 34 42 114h-360v436q0 88 182 88 q162 0 277 -86t165 -216t50 -286q0 -574 -474 -574q-90 0 -145 49t-55 183z" />
<glyph unicode="&#xd1;" horiz-adv-x="1444" d="M64 64l22 -64h352l24 30l-24 34q-46 60 -64 127t-18 181v678l706 -1050h188l22 30l-22 34q-28 40 -28 100v796q0 198 82 308l28 34l-28 30h-348l-26 -64l44 -10q72 -20 96 -54t24 -118v-806l-710 1052h-298l-22 -64l42 -10q70 -20 94 -54t24 -118v-840q0 -86 -23 -118 t-95 -54zM436 1566l66 -60q66 72 124 72q26 0 78 -32t98 -32q52 0 115 49t121 131l-62 60q-78 -76 -128 -76q-26 0 -79 33t-95 33q-106 0 -238 -178z" />
<glyph unicode="&#xd2;" d="M66 664q0 -304 157 -497t455 -193t457 193t159 497t-159 499t-457 195t-455 -195t-157 -499zM266 648q0 258 114 432t310 174q112 0 195 -59t126 -153t63 -191t20 -193q0 -246 -114 -411t-310 -165q-194 0 -299 160t-105 406zM494 1702q0 -82 104 -132l210 -102l54 62 l-290 292q-78 -38 -78 -120z" />
<glyph unicode="&#xd3;" d="M66 664q0 -304 157 -497t455 -193t457 193t159 497t-159 499t-457 195t-455 -195t-157 -499zM266 648q0 258 114 432t310 174q112 0 195 -59t126 -153t63 -191t20 -193q0 -246 -114 -411t-310 -165q-194 0 -299 160t-105 406zM496 1530l52 -62l212 102q102 50 102 132 t-78 120z" />
<glyph unicode="&#xd4;" d="M66 664q0 -304 157 -497t455 -193t457 193t159 497t-159 499t-457 195t-455 -195t-157 -499zM266 648q0 258 114 432t310 174q112 0 195 -59t126 -153t63 -191t20 -193q0 -246 -114 -411t-310 -165q-194 0 -299 160t-105 406zM426 1518l62 -50l190 152l196 -152l60 50 q-58 102 -127 187t-103 105h-48q-38 -22 -105 -106t-125 -186z" />
<glyph unicode="&#xd5;" d="M66 664q0 -304 157 -497t455 -193t457 193t159 497t-159 499t-457 195t-455 -195t-157 -499zM266 648q0 258 114 432t310 174q112 0 195 -59t126 -153t63 -191t20 -193q0 -246 -114 -411t-310 -165q-194 0 -299 160t-105 406zM378 1566l66 -60q66 72 124 72q26 0 78 -32 t98 -32q52 0 115 49t121 131l-60 60q-78 -76 -128 -76q-26 0 -79 33t-95 33q-108 0 -240 -178z" />
<glyph unicode="&#xd6;" d="M66 664q0 -304 157 -497t455 -193t457 193t159 497t-159 499t-457 195t-455 -195t-157 -499zM266 648q0 258 114 432t310 174q112 0 195 -59t126 -153t63 -191t20 -193q0 -246 -114 -411t-310 -165q-194 0 -299 160t-105 406zM390 1630q0 -34 40 -77t72 -43q34 0 77 43 t43 77q0 36 -43 80t-77 44q-32 0 -72 -44t-40 -80zM740 1630q0 -34 41 -77t73 -43q34 0 76 43t42 77q0 36 -42 80t-76 44t-74 -44t-40 -80z" />
<glyph unicode="&#xd7;" horiz-adv-x="1272" d="M206 394l100 -100l268 268l268 -268l100 100l-268 268l268 268l-100 100l-268 -268l-268 268l-100 -100l268 -268z" />
<glyph unicode="&#xd8;" d="M66 664q0 -218 82 -384t242 -244l-54 -154h130l40 114q96 -22 172 -22q298 0 457 193t159 497q0 216 -82 382t-242 246l56 158h-134l-40 -114q-100 22 -174 22q-298 0 -455 -195t-157 -499zM266 648q0 258 114 432t310 174q56 0 122 -22l-376 -1066q-170 150 -170 482z M544 104l380 1058q88 -86 129 -225t41 -279q0 -246 -114 -411t-310 -165q-66 0 -126 22z" />
<glyph unicode="&#xd9;" horiz-adv-x="1370" d="M42 1268l46 -10q72 -20 95 -54t23 -118v-680q0 -218 135 -325t353 -107q214 0 346 108t132 324v554q0 200 84 308l24 34l-24 30h-352l-24 -64l44 -10q72 -20 95 -54t23 -118v-680q0 -146 -92 -230t-232 -84q-142 0 -235 84t-93 230v554q0 198 82 308l24 34l-24 30h-404z M500 1702q0 -82 104 -132l210 -102l54 62l-290 292q-78 -38 -78 -120z" />
<glyph unicode="&#xda;" horiz-adv-x="1370" d="M42 1268l46 -10q72 -20 95 -54t23 -118v-680q0 -218 135 -325t353 -107q214 0 346 108t132 324v554q0 200 84 308l24 34l-24 30h-352l-24 -64l44 -10q72 -20 95 -54t23 -118v-680q0 -146 -92 -230t-232 -84q-142 0 -235 84t-93 230v554q0 198 82 308l24 34l-24 30h-404z M568 1530l54 -62l210 102q102 50 102 132t-78 120z" />
<glyph unicode="&#xdb;" horiz-adv-x="1370" d="M42 1268l46 -10q72 -20 95 -54t23 -118v-680q0 -218 135 -325t353 -107q214 0 346 108t132 324v554q0 200 84 308l24 34l-24 30h-352l-24 -64l44 -10q72 -20 95 -54t23 -118v-680q0 -146 -92 -230t-232 -84q-142 0 -235 84t-93 230v554q0 198 82 308l24 34l-24 30h-404z M462 1518l62 -50l190 152l196 -152l60 50q-58 102 -127 187t-103 105h-48q-38 -22 -105 -106t-125 -186z" />
<glyph unicode="&#xdc;" horiz-adv-x="1370" d="M42 1268l46 -10q72 -20 95 -54t23 -118v-680q0 -218 135 -325t353 -107q214 0 346 108t132 324v554q0 200 84 308l24 34l-24 30h-352l-24 -64l44 -10q72 -20 95 -54t23 -118v-680q0 -146 -92 -230t-232 -84q-142 0 -235 84t-93 230v554q0 198 82 308l24 34l-24 30h-404z M420 1630q0 -34 40 -77t72 -43q34 0 77 43t43 77q0 36 -43 80t-77 44q-32 0 -72 -44t-40 -80zM770 1630q0 -34 41 -77t73 -43q34 0 76 43t42 77q0 36 -42 80t-76 44t-74 -44t-40 -80z" />
<glyph unicode="&#xdd;" horiz-adv-x="1160" d="M8 1302q92 -68 186 -234l298 -522v-174q0 -110 -20 -177t-68 -131l-24 -34l24 -30h406l22 64l-40 10q-72 18 -98 53t-26 119v316l290 510q58 108 130 196l26 34l-22 30h-354l-20 -64l40 -10q78 -20 78 -98q0 -32 -22 -76l-208 -376l-202 352q-58 90 -58 116q0 64 86 82 l40 10l-20 64h-420zM486 1530l52 -62l210 102q104 50 104 132q0 80 -80 120z" />
<glyph unicode="&#xde;" horiz-adv-x="1104" d="M74 64l22 -64h456l18 60l-38 10q-68 20 -90 51t-22 113v690q0 94 160 94q142 0 219 -98t77 -252q0 -152 -78 -241t-218 -89q-32 0 -59 7t-31 7q-30 0 -30 -48q0 -30 48 -46t116 -16q218 0 331 122t113 308t-124 314t-312 128q-110 0 -206 -36q14 106 78 190l24 34l-24 30 h-408l-22 -64l44 -10q70 -20 94 -54t24 -118v-840q0 -86 -23 -118t-95 -54z" />
<glyph unicode="&#xdf;" horiz-adv-x="1178" d="M24 64l22 -64h408l22 30l-22 34q-48 62 -67 129t-19 179v634q0 158 58 254t180 96q64 0 107 -34t43 -110q0 -64 -38 -134t-83 -121t-83 -114t-38 -111q0 -76 34 -125t110 -95l140 -70q182 -98 182 -224q0 -76 -52 -113t-120 -37q-78 0 -139 18t-63 18q-30 0 -30 -46 q0 -26 18 -38q92 -46 212 -46q146 0 242 86t96 208q0 190 -236 310l-130 66q-100 54 -100 144q0 48 39 102t85 96t85 104t39 122q0 116 -78 178t-200 62q-208 0 -335 -126t-127 -350v-730q0 -86 -23 -118t-95 -54z" />
<glyph unicode="&#xe0;" horiz-adv-x="1118" d="M82 426q0 -216 98 -334t238 -118q188 0 324 196q0 -104 35 -150t111 -46q98 0 206 118l-36 48q-46 -34 -92 -34q-58 0 -58 58v604q0 32 24 74l26 34l-24 24q-56 4 -182 24t-188 20q-222 0 -352 -139t-130 -379zM278 460q0 182 74 282t210 100q100 0 180 -54v-502 q-96 -168 -252 -168q-90 0 -151 82t-61 260zM376 1292q0 -82 104 -132l212 -102l52 62l-288 290q-80 -40 -80 -118z" />
<glyph unicode="&#xe1;" horiz-adv-x="1118" d="M82 426q0 -216 98 -334t238 -118q188 0 324 196q0 -104 35 -150t111 -46q98 0 206 118l-36 48q-46 -34 -92 -34q-58 0 -58 58v604q0 32 24 74l26 34l-24 24q-56 4 -182 24t-188 20q-222 0 -352 -139t-130 -379zM278 460q0 182 74 282t210 100q100 0 180 -54v-502 q-96 -168 -252 -168q-90 0 -151 82t-61 260zM376 1120l54 -62l210 102q102 50 102 132q0 80 -78 118z" />
<glyph unicode="&#xe2;" horiz-adv-x="1118" d="M82 426q0 -216 98 -334t238 -118q188 0 324 196q0 -104 35 -150t111 -46q98 0 206 118l-36 48q-46 -34 -92 -34q-58 0 -58 58v604q0 32 24 74l26 34l-24 24q-56 4 -182 24t-188 20q-222 0 -352 -139t-130 -379zM278 460q0 182 74 282t210 100q100 0 180 -54v-502 q-96 -168 -252 -168q-90 0 -151 82t-61 260zM306 1106l62 -48l192 150l196 -150l58 48q-58 104 -126 189t-102 105h-50q-38 -22 -105 -107t-125 -187z" />
<glyph unicode="&#xe3;" horiz-adv-x="1118" d="M82 426q0 -216 98 -334t238 -118q188 0 324 196q0 -104 35 -150t111 -46q98 0 206 118l-36 48q-46 -34 -92 -34q-58 0 -58 58v604q0 32 24 74l26 34l-24 24q-56 4 -182 24t-188 20q-222 0 -352 -139t-130 -379zM258 1156l66 -60q66 72 122 72q26 0 79 -32t99 -32 q52 0 115 49t121 131l-62 58q-76 -74 -128 -74q-26 0 -79 33t-95 33q-106 0 -238 -178zM278 460q0 182 74 282t210 100q100 0 180 -54v-502q-96 -168 -252 -168q-90 0 -151 82t-61 260z" />
<glyph unicode="&#xe4;" horiz-adv-x="1118" d="M82 426q0 -216 98 -334t238 -118q188 0 324 196q0 -104 35 -150t111 -46q98 0 206 118l-36 48q-46 -34 -92 -34q-58 0 -58 58v604q0 32 24 74l26 34l-24 24q-56 4 -182 24t-188 20q-222 0 -352 -139t-130 -379zM268 1220q0 -34 40 -77t72 -43q34 0 77 43t43 77 q0 36 -43 79t-77 43t-73 -43t-39 -79zM278 460q0 182 74 282t210 100q100 0 180 -54v-502q-96 -168 -252 -168q-90 0 -151 82t-61 260zM620 1220q0 -34 40 -77t72 -43q34 0 77 43t43 77q0 36 -43 79t-77 43t-73 -43t-39 -79z" />
<glyph unicode="&#xe5;" horiz-adv-x="1118" d="M82 426q0 -216 98 -334t238 -118q188 0 324 196q0 -104 35 -150t111 -46q98 0 206 118l-36 48q-46 -34 -92 -34q-58 0 -58 58v604q0 32 24 74l26 34l-24 24q-56 4 -182 24t-188 20q-222 0 -352 -139t-130 -379zM278 460q0 182 74 282t210 100q100 0 180 -54v-502 q-96 -168 -252 -168q-90 0 -151 82t-61 260zM348 1220q0 -86 56 -141t154 -55q102 0 158 55t56 141q0 88 -56 144t-158 56q-98 0 -154 -56t-56 -144zM478 1220q0 48 22 79t58 31q38 0 59 -31t21 -79q0 -46 -21 -77t-59 -31q-36 0 -58 32t-22 76z" />
<glyph unicode="&#xe6;" horiz-adv-x="1606" d="M82 246q0 -112 83 -192t233 -80q128 0 221 59t141 163q54 -104 150 -163t222 -59q228 0 370 166q6 6 6 18q0 18 -16 34t-32 16q-12 0 -18 -6q-108 -106 -270 -106q-132 0 -203 93t-71 259q0 194 67 300t187 106q84 0 130 -53t46 -127q0 -86 -62 -148t-174 -62 q-44 0 -80 12t-40 12q-10 0 -20 -13t-10 -29q0 -44 73 -65t135 -21q164 0 259 94t95 218q0 112 -83 192t-233 80q-248 0 -378 -166q-118 166 -340 166q-98 0 -186 -31t-132 -65t-44 -54q0 -18 17 -36t33 -18q6 0 34 21t89 42t151 21q134 0 204 -93t70 -261q0 -190 -71 -293 t-199 -103q-84 0 -130 50t-46 120q0 90 62 155t172 65q52 0 94 -12t44 -12q10 0 19 12t9 28q0 42 -80 65t-142 23q-164 0 -260 -98t-96 -224z" />
<glyph unicode="&#xe7;" horiz-adv-x="942" d="M82 458q0 -178 93 -305t245 -163l-138 -180l38 -32q52 30 100 30q60 0 92 -40t32 -98q0 -56 -31 -97t-85 -41q-30 0 -53 20t-23 52t13 55t13 27q0 18 -34 18q-48 0 -82 -30t-34 -78q0 -66 60 -104t142 -38q106 0 178 62t72 152q0 100 -60 155t-148 55q-38 0 -70 -8 l82 106q8 0 24 -1t24 -1q198 0 334 154q4 2 4 16q0 18 -15 35t-31 17q-14 0 -18 -4q-112 -94 -244 -94t-209 101t-77 273q0 170 65 273t171 103q80 0 128 -43t48 -115q0 -46 -12 -80t-23 -51t-11 -23q0 -18 34 -18q80 0 131 50t51 130q0 108 -91 177t-235 69 q-204 0 -327 -132t-123 -354z" />
<glyph unicode="&#xe8;" horiz-adv-x="980" d="M82 448q0 -214 117 -344t311 -130q226 0 368 166q8 16 8 18q0 18 -17 34t-33 16q-10 0 -16 -6q-108 -106 -272 -106q-134 0 -204 93t-70 259q0 196 67 301t187 105q82 0 129 -53t47 -127q0 -86 -62 -148t-174 -62q-44 0 -80 12t-40 12q-26 0 -26 -42q0 -44 71 -65 t133 -21q162 0 258 94t96 218q0 114 -82 193t-234 79q-218 0 -350 -136t-132 -360zM306 1292q0 -82 104 -132l212 -102l52 62l-288 290q-80 -40 -80 -118z" />
<glyph unicode="&#xe9;" horiz-adv-x="980" d="M82 448q0 -214 117 -344t311 -130q226 0 368 166q8 16 8 18q0 18 -17 34t-33 16q-10 0 -16 -6q-108 -106 -272 -106q-134 0 -204 93t-70 259q0 196 67 301t187 105q82 0 129 -53t47 -127q0 -86 -62 -148t-174 -62q-44 0 -80 12t-40 12q-26 0 -26 -42q0 -44 71 -65 t133 -21q162 0 258 94t96 218q0 114 -82 193t-234 79q-218 0 -350 -136t-132 -360zM306 1120l54 -62l210 102q102 50 102 132q0 80 -78 118z" />
<glyph unicode="&#xea;" horiz-adv-x="980" d="M82 448q0 -214 117 -344t311 -130q226 0 368 166q8 16 8 18q0 18 -17 34t-33 16q-10 0 -16 -6q-108 -106 -272 -106q-134 0 -204 93t-70 259q0 196 67 301t187 105q82 0 129 -53t47 -127q0 -86 -62 -148t-174 -62q-44 0 -80 12t-40 12q-26 0 -26 -42q0 -44 71 -65 t133 -21q162 0 258 94t96 218q0 114 -82 193t-234 79q-218 0 -350 -136t-132 -360zM238 1106l62 -48l192 150l196 -150l58 48q-58 104 -126 189t-102 105h-50q-38 -22 -105 -107t-125 -187z" />
<glyph unicode="&#xeb;" horiz-adv-x="980" d="M82 448q0 -214 117 -344t311 -130q226 0 368 166q8 16 8 18q0 18 -17 34t-33 16q-10 0 -16 -6q-108 -106 -272 -106q-134 0 -204 93t-70 259q0 196 67 301t187 105q82 0 129 -53t47 -127q0 -86 -62 -148t-174 -62q-44 0 -80 12t-40 12q-26 0 -26 -42q0 -44 71 -65 t133 -21q162 0 258 94t96 218q0 114 -82 193t-234 79q-218 0 -350 -136t-132 -360zM200 1220q0 -34 40 -77t72 -43q34 0 77 43t43 77q0 36 -43 79t-77 43t-73 -43t-39 -79zM552 1220q0 -34 40 -77t72 -43q34 0 77 43t43 77q0 36 -43 79t-77 43t-73 -43t-39 -79z" />
<glyph unicode="&#xec;" horiz-adv-x="578" d="M66 834l14 -46h84q36 0 36 -44v-574q0 -104 34 -150t110 -46q100 0 208 118l-34 48q-48 -40 -94 -40q-56 0 -56 64v724q0 26 -16 41t-44 15q-52 0 -120 -31t-122 -79zM106 1292q0 -82 104 -132l212 -102l52 62l-288 290q-80 -40 -80 -118z" />
<glyph unicode="&#xed;" horiz-adv-x="578" d="M66 834l14 -46h84q36 0 36 -44v-574q0 -104 34 -150t110 -46q100 0 208 118l-34 48q-48 -40 -94 -40q-56 0 -56 64v724q0 26 -16 41t-44 15q-52 0 -120 -31t-122 -79zM106 1120l54 -62l210 102q102 50 102 132q0 80 -78 118z" />
<glyph unicode="&#xee;" horiz-adv-x="578" d="M36 1106l62 -48l192 150l196 -150l58 48q-58 102 -127 188t-103 106h-48q-38 -22 -105 -107t-125 -187zM66 834l14 -46h84q36 0 36 -44v-574q0 -104 34 -150t110 -46q100 0 208 118l-34 48q-48 -40 -94 -40q-56 0 -56 64v724q0 26 -16 41t-44 15q-52 0 -120 -31t-122 -79 z" />
<glyph unicode="&#xef;" horiz-adv-x="578" d="M0 1220q0 -34 40 -77t72 -43q34 0 77 43t43 77q0 36 -43 79t-77 43t-73 -43t-39 -79zM66 834l14 -46h84q36 0 36 -44v-574q0 -104 34 -150t110 -46q100 0 208 118l-34 48q-48 -40 -94 -40q-56 0 -56 64v724q0 26 -16 41t-44 15q-52 0 -120 -31t-122 -79zM352 1220 q0 -34 40 -77t72 -43q34 0 77 43t43 77q0 36 -43 79t-77 43t-73 -43t-39 -79z" />
<glyph unicode="&#xf0;" horiz-adv-x="1082" d="M80 442q0 -216 124 -342t338 -126q210 0 336 127t126 341q0 162 -40 365t-122 361l154 74q24 12 32 45t8 109l-252 -128q-138 198 -344 198q-144 0 -223 -69t-79 -163q0 -82 55 -140t151 -58q30 0 30 22q0 6 -20 25t-40 57t-20 92q0 62 39 105t105 43q124 0 224 -174 l-94 -46q-40 -18 -40 -150l184 92q54 -134 88 -304q-98 110 -258 110q-214 0 -338 -125t-124 -341zM272 442q0 170 71 270t193 100q130 0 212 -107t82 -279q0 -164 -71 -258t-195 -94q-128 0 -210 101t-82 267z" />
<glyph unicode="&#xf1;" horiz-adv-x="1192" d="M74 818l18 -50h80q36 0 36 -40v-522q0 -72 -15 -101t-63 -37l-36 -10l18 -58h326l22 28l-22 30q-60 84 -60 238q0 226 74 366t194 140q160 0 160 -190v-442q0 -106 33 -151t109 -45q106 0 210 118l-36 48q-46 -40 -92 -40q-56 0 -56 64v448q0 172 -60 252t-188 80 q-106 0 -203 -77t-145 -199v202q0 26 -16 42t-42 16q-52 0 -122 -31t-124 -79zM294 1156l66 -60q66 72 124 72q26 0 78 -32t98 -32q52 0 115 49t121 131l-62 58q-76 -74 -128 -74q-26 0 -79 33t-95 33q-106 0 -238 -178z" />
<glyph unicode="&#xf2;" horiz-adv-x="1072" d="M82 460q0 -222 123 -354t331 -132t331 132t123 354t-123 353t-331 131t-331 -130t-123 -354zM276 458q0 176 73 283t193 107q90 0 151 -69t81 -152t20 -171q0 -172 -73 -277t-189 -105q-118 0 -187 104t-69 280zM342 1292q0 -82 104 -132l212 -102l52 62l-288 290 q-80 -40 -80 -118z" />
<glyph unicode="&#xf3;" horiz-adv-x="1072" d="M82 460q0 -222 123 -354t331 -132t331 132t123 354t-123 353t-331 131t-331 -130t-123 -354zM276 458q0 176 73 283t193 107q90 0 151 -69t81 -152t20 -171q0 -172 -73 -277t-189 -105q-118 0 -187 104t-69 280zM392 1120l52 -62l212 102q102 50 102 132q0 78 -80 118z " />
<glyph unicode="&#xf4;" horiz-adv-x="1072" d="M82 460q0 -222 123 -354t331 -132t331 132t123 354t-123 353t-331 131t-331 -130t-123 -354zM276 458q0 176 73 283t193 107q90 0 151 -69t81 -152t20 -171q0 -172 -73 -277t-189 -105q-118 0 -187 104t-69 280zM288 1106l60 -48l192 150l196 -150l60 48 q-58 102 -127 188t-103 106h-48q-38 -22 -105 -107t-125 -187z" />
<glyph unicode="&#xf5;" horiz-adv-x="1072" d="M82 460q0 -222 123 -354t331 -132t331 132t123 354t-123 353t-331 131t-331 -130t-123 -354zM240 1156l66 -60q66 72 124 72q26 0 78 -32t98 -32q52 0 115 49t121 131l-62 58q-76 -74 -126 -74q-26 0 -80 33t-96 33q-106 0 -238 -178zM276 458q0 176 73 283t193 107 q90 0 151 -69t81 -152t20 -171q0 -172 -73 -277t-189 -105q-118 0 -187 104t-69 280z" />
<glyph unicode="&#xf6;" horiz-adv-x="1072" d="M82 460q0 -222 123 -354t331 -132t331 132t123 354t-123 353t-331 131t-331 -130t-123 -354zM252 1220q0 -34 40 -77t72 -43q34 0 77 43t43 77q0 36 -43 79t-77 43t-73 -43t-39 -79zM276 458q0 176 73 283t193 107q90 0 151 -69t81 -152t20 -171q0 -172 -73 -277 t-189 -105q-118 0 -187 104t-69 280zM602 1220q0 -34 40 -77t72 -43q34 0 77 43t43 77q0 36 -43 79t-77 43t-73 -43t-39 -79z" />
<glyph unicode="&#xf7;" horiz-adv-x="1272" d="M182 594h786v138h-786v-138zM460 352q0 -34 40 -77t72 -43q34 0 76 43t42 77q0 38 -42 80t-76 42t-73 -42t-39 -80zM460 970q0 -34 40 -76t72 -42q34 0 76 42t42 76q0 38 -42 81t-76 43t-73 -43t-39 -81z" />
<glyph unicode="&#xf8;" horiz-adv-x="1072" d="M82 460q0 -160 66 -277t184 -169l-50 -140h98l42 114q62 -14 114 -14q208 0 331 132t123 354q0 158 -64 272t-180 168l54 150h-100l-42 -120q-66 14 -122 14q-208 0 -331 -130t-123 -354zM276 458q0 176 73 283t193 107q44 0 82 -16l-248 -694q-100 104 -100 320zM458 88 l242 684q94 -116 94 -316q0 -172 -73 -277t-189 -105q-32 0 -74 14z" />
<glyph unicode="&#xf9;" horiz-adv-x="1140" d="M58 834l14 -46h84q36 0 36 -44v-464q0 -146 74 -226t208 -80q102 0 187 49t129 131q0 -94 33 -137t107 -43q110 0 206 118l-36 48q-42 -34 -92 -34t-50 58v780l-228 -22l-24 -28l24 -28q42 -74 57 -150t15 -212q0 -190 -70 -298t-194 -108q-178 0 -178 228v562 q0 26 -16 41t-44 15q-58 0 -127 -31t-115 -79zM368 1292q0 -82 104 -132l212 -102l52 62l-290 290q-78 -38 -78 -118z" />
<glyph unicode="&#xfa;" horiz-adv-x="1140" d="M58 834l14 -46h84q36 0 36 -44v-464q0 -146 74 -226t208 -80q102 0 187 49t129 131q0 -94 33 -137t107 -43q110 0 206 118l-36 48q-42 -34 -92 -34t-50 58v780l-228 -22l-24 -28l24 -28q42 -74 57 -150t15 -212q0 -190 -70 -298t-194 -108q-178 0 -178 228v562 q0 26 -16 41t-44 15q-58 0 -127 -31t-115 -79zM438 1120l54 -62l210 102q102 50 102 132q0 80 -78 118z" />
<glyph unicode="&#xfb;" horiz-adv-x="1140" d="M58 834l14 -46h84q36 0 36 -44v-464q0 -146 74 -226t208 -80q102 0 187 49t129 131q0 -94 33 -137t107 -43q110 0 206 118l-36 48q-42 -34 -92 -34t-50 58v780l-228 -22l-24 -28l24 -28q42 -74 57 -150t15 -212q0 -190 -70 -298t-194 -108q-178 0 -178 228v562 q0 26 -16 41t-44 15q-58 0 -127 -31t-115 -79zM314 1106l62 -48l192 150l196 -150l60 48q-58 102 -127 188t-103 106h-50q-38 -22 -105 -107t-125 -187z" />
<glyph unicode="&#xfc;" horiz-adv-x="1140" d="M58 834l14 -46h84q36 0 36 -44v-464q0 -146 74 -226t208 -80q102 0 187 49t129 131q0 -94 33 -137t107 -43q110 0 206 118l-36 48q-42 -34 -92 -34t-50 58v780l-228 -22l-24 -28l24 -28q42 -74 57 -150t15 -212q0 -190 -70 -298t-194 -108q-178 0 -178 228v562 q0 26 -16 41t-44 15q-58 0 -127 -31t-115 -79zM278 1220q0 -34 41 -77t73 -43q34 0 76 43t42 77q0 36 -42 79t-76 43t-74 -43t-40 -79zM630 1220q0 -34 40 -77t72 -43q34 0 77 43t43 77q0 36 -43 79t-77 43t-73 -43t-39 -79z" />
<glyph unicode="&#xfd;" horiz-adv-x="1128" d="M58 836l14 -46h84q36 0 36 -44v-410q0 -146 73 -227t205 -81q104 0 189 47t129 129v-274q0 -160 -55 -255t-169 -95q-74 0 -118 50t-44 124q0 60 22 104t45 67t23 29q0 20 -34 20q-110 0 -173 -66t-63 -160q0 -106 84 -186t234 -80q192 0 302 125t110 353v986l-226 -22 l-22 -28l22 -28q48 -62 60 -136t12 -226q0 -168 -70 -260t-194 -92q-174 0 -174 224v512q0 26 -16 41t-44 15q-58 0 -127 -31t-115 -79zM438 1120l54 -62l210 102q102 50 102 132q0 80 -78 118z" />
<glyph unicode="&#xfe;" horiz-adv-x="1104" d="M58 1314l96 -20q38 -8 38 -60v-1430q0 -154 -62 -240l-22 -30l22 -26h326l18 56l-38 8q-48 10 -63 39t-15 101v1040q92 72 208 72t187 -101t71 -263q0 -168 -71 -277t-185 -109q-48 0 -88 15t-42 15q-28 0 -28 -46q0 -24 18 -34q76 -50 184 -50q176 0 292 149t116 373 q0 198 -111 323t-283 125q-150 0 -268 -114v536q0 86 -46 86q-60 0 -143 -25t-111 -51v-62z" />
<glyph unicode="&#xff;" horiz-adv-x="1128" d="M58 836l14 -46h84q36 0 36 -44v-410q0 -146 73 -227t205 -81q104 0 189 47t129 129v-274q0 -160 -55 -255t-169 -95q-74 0 -118 50t-44 124q0 60 22 104t45 67t23 29q0 20 -34 20q-110 0 -173 -66t-63 -160q0 -106 84 -186t234 -80q192 0 302 125t110 353v986l-226 -22 l-22 -28l22 -28q48 -62 60 -136t12 -226q0 -168 -70 -260t-194 -92q-174 0 -174 224v512q0 26 -16 41t-44 15q-58 0 -127 -31t-115 -79zM274 1220q0 -34 41 -77t73 -43q34 0 76 43t42 77q0 36 -42 79t-76 43t-74 -43t-40 -79zM626 1220q0 -34 40 -77t72 -43q34 0 77 43 t43 77q0 36 -43 79t-77 43t-73 -43t-39 -79z" />
<glyph unicode="&#x152;" horiz-adv-x="1774" d="M66 664q0 -292 157 -478t455 -186h850q60 0 78 -26l14 -20l36 20v318l-62 20l-14 -42q-26 -100 -64 -132t-136 -32h-200q-74 0 -96 26t-22 114v378h156q104 0 145 -20t59 -84l10 -46l62 22v318l-36 20l-16 -20q-58 -84 -146 -84h-234v356q0 86 23 114t95 28h180 q98 0 137 -33t65 -133l10 -44l64 22v330l-30 24l-34 -24q-48 -38 -210 -38h-684q-296 0 -454 -189t-158 -479zM266 664q0 152 34 278t126 218t232 92q110 0 220 -78v-1044q-86 -48 -182 -48q-196 0 -313 167t-117 415z" />
<glyph unicode="&#x153;" horiz-adv-x="1694" d="M82 460q0 -222 123 -354t331 -132q232 0 354 160q116 -160 336 -160q226 0 368 166q6 12 6 18q0 18 -16 34t-32 16q-12 0 -18 -6q-108 -106 -270 -106q-134 0 -204 93t-70 259q0 196 66 301t186 105q82 0 130 -53t48 -127q0 -86 -62 -148t-174 -62q-44 0 -80 12t-40 12 q-10 0 -19 -13t-9 -29q0 -44 71 -65t133 -21q164 0 260 94t96 218q0 114 -83 193t-235 79q-242 0 -380 -170q-122 170 -362 170q-208 0 -331 -130t-123 -354zM276 458q0 176 73 283t193 107q90 0 151 -69t81 -152t20 -171q0 -172 -73 -277t-189 -105q-118 0 -187 104 t-69 280z" />
<glyph unicode="&#x178;" horiz-adv-x="1160" d="M8 1302q92 -68 186 -234l298 -522v-174q0 -110 -20 -177t-68 -131l-24 -34l24 -30h406l22 64l-40 10q-72 18 -98 53t-26 119v316l290 510q58 108 130 196l26 34l-22 30h-354l-20 -64l40 -10q78 -20 78 -98q0 -32 -22 -76l-208 -376l-202 352q-58 90 -58 116q0 64 86 82 l40 10l-20 64h-420zM340 1630q0 -34 41 -77t73 -43q34 0 76 43t42 77q0 36 -42 80t-76 44t-74 -44t-40 -80zM692 1630q0 -34 40 -77t72 -43q34 0 77 43t43 77q0 36 -43 80t-77 44q-32 0 -72 -44t-40 -80z" />
<glyph unicode="&#x2c6;" horiz-adv-x="692" d="M94 1106l62 -48l190 150l196 -150l60 48q-58 102 -127 188t-103 106h-48q-38 -22 -105 -107t-125 -187z" />
<glyph unicode="&#x2dc;" horiz-adv-x="754" d="M76 1156l66 -60q66 72 124 72q26 0 78 -32t98 -32q52 0 115 49t121 131l-60 58q-76 -74 -128 -74q-26 0 -80 33t-96 33q-106 0 -238 -178z" />
<glyph unicode="&#x2000;" horiz-adv-x="915" />
<glyph unicode="&#x2001;" horiz-adv-x="1830" />
<glyph unicode="&#x2002;" horiz-adv-x="915" />
<glyph unicode="&#x2003;" horiz-adv-x="1830" />
<glyph unicode="&#x2004;" horiz-adv-x="610" />
<glyph unicode="&#x2005;" horiz-adv-x="457" />
<glyph unicode="&#x2006;" horiz-adv-x="305" />
<glyph unicode="&#x2007;" horiz-adv-x="305" />
<glyph unicode="&#x2008;" horiz-adv-x="228" />
<glyph unicode="&#x2009;" horiz-adv-x="366" />
<glyph unicode="&#x200a;" horiz-adv-x="101" />
<glyph unicode="&#x2010;" horiz-adv-x="728" d="M62 468l486 18q50 42 50 132l-490 -20q-46 -40 -46 -130z" />
<glyph unicode="&#x2011;" horiz-adv-x="728" d="M62 468l486 18q50 42 50 132l-490 -20q-46 -40 -46 -130z" />
<glyph unicode="&#x2012;" horiz-adv-x="728" d="M62 468l486 18q50 42 50 132l-490 -20q-46 -40 -46 -130z" />
<glyph unicode="&#x2013;" horiz-adv-x="1596" d="M94 468l1210 18q52 42 52 132l-1214 -20q-48 -40 -48 -130z" />
<glyph unicode="&#x2014;" horiz-adv-x="1864" d="M94 468l1450 18q50 42 50 132l-1452 -20q-48 -40 -48 -130z" />
<glyph unicode="&#x2018;" horiz-adv-x="460" d="M64 1098q0 -124 122 -124q44 0 102 22l34 12l-10 44l-36 24q-40 28 -40 66q0 30 22 78l84 168l-54 36l-74 -80q-76 -84 -113 -139t-37 -107z" />
<glyph unicode="&#x2019;" horiz-adv-x="460" d="M76 1002l56 -36l72 78q78 84 115 140t37 108q0 122 -122 122q-48 0 -102 -20l-34 -14l8 -42l36 -26q40 -28 40 -66q0 -34 -20 -76z" />
<glyph unicode="&#x201a;" horiz-adv-x="354" d="M12 -194l56 -36l72 78q78 84 115 140t37 108q0 124 -122 124q-44 0 -102 -22l-34 -12l8 -44l36 -24q42 -30 42 -66q0 -30 -22 -78z" />
<glyph unicode="&#x201c;" horiz-adv-x="776" d="M64 1098q0 -124 122 -124q44 0 102 22l34 12l-10 44l-36 24q-40 28 -40 66q0 30 22 78l84 168l-54 36l-74 -80q-76 -84 -113 -139t-37 -107zM348 1098q0 -124 122 -124q44 0 102 22l34 12l-8 44l-36 24q-40 28 -40 66q0 36 20 78l86 168l-56 36l-72 -80 q-78 -86 -115 -140t-37 -106z" />
<glyph unicode="&#x201d;" horiz-adv-x="776" d="M76 1002l56 -36l72 78q78 84 115 140t37 108q0 122 -122 122q-48 0 -102 -20l-34 -14l8 -42l36 -26q40 -28 40 -66q0 -34 -20 -76zM362 1002l56 -36l72 78q76 82 113 139t37 109q0 122 -120 122q-48 0 -102 -20l-34 -14l8 -42l36 -26q40 -28 40 -66q0 -28 -22 -76z" />
<glyph unicode="&#x201e;" horiz-adv-x="640" d="M12 -192l56 -36l72 80q78 86 115 140t37 106q0 124 -122 124q-44 0 -102 -22l-34 -12l8 -44l36 -24q42 -30 42 -66q0 -30 -22 -78zM298 -192l56 -36l72 80q76 84 113 139t37 107q0 124 -120 124q-44 0 -102 -22l-34 -12l8 -44l36 -24q40 -28 40 -66q0 -36 -20 -78z" />
<glyph unicode="&#x2022;" horiz-adv-x="490" d="M90 560q0 -48 53 -104t99 -56t102 57t56 103q0 52 -56 110t-102 58t-99 -58t-53 -110z" />
<glyph unicode="&#x2026;" horiz-adv-x="1174" d="M62 94q0 -34 40 -77t72 -43q34 0 76 43t42 77q0 38 -42 81t-76 43t-73 -43t-39 -81zM418 94q0 -34 40 -77t72 -43t73 43t41 77q0 38 -40 81t-74 43t-73 -43t-39 -81zM768 94q0 -34 42 -77t74 -43q34 0 75 43t41 77q0 38 -41 81t-75 43t-75 -43t-41 -81z" />
<glyph unicode="&#x202f;" horiz-adv-x="366" />
<glyph unicode="&#x2039;" horiz-adv-x="550" d="M94 520q0 -50 188 -360q10 -18 16 -28q102 12 160 86q-42 76 -254 302q214 224 254 298q-60 76 -160 84q-124 -204 -164 -278t-40 -104z" />
<glyph unicode="&#x203a;" horiz-adv-x="550" d="M94 218q58 -74 160 -86q178 296 198 352q6 20 6 36q0 30 -40 104t-164 278q-100 -8 -160 -84q38 -74 252 -298q-212 -226 -252 -302z" />
<glyph unicode="&#x205f;" horiz-adv-x="457" />
<glyph unicode="&#x20ac;" horiz-adv-x="1144" d="M-12 432h172q42 -212 169 -335t339 -123q158 0 279 77t121 213q0 80 -53 130t-135 50q-20 0 -25 -1t-9 -5t-4 -18l22 -46q22 -46 22 -96q0 -94 -68 -147t-156 -53q-246 0 -304 354h310q44 34 44 116h-368q-2 36 -2 116q0 44 2 68h324q44 34 44 116h-356q28 180 111 294 t227 114q88 0 140 -45t52 -109q0 -54 -20 -93t-40 -58t-20 -25q0 -20 28 -20q96 0 152 59t56 139q0 104 -91 179t-257 75q-218 0 -355 -139t-181 -371h-128q-42 -30 -42 -116h156q-2 -26 -2 -86q0 -66 2 -98h-114q-42 -30 -42 -116z" />
<glyph unicode="&#x2122;" horiz-adv-x="2006" d="M186 1152q16 -32 72 -32l28 136h166v-622q0 -26 -20 -30l-84 -28v-48h318q28 20 28 66l-114 26v636h164l30 -136q52 0 68 32v190l-20 20q-64 -30 -120 -30h-370q-60 0 -124 30l-22 -20v-190zM894 528h258q28 20 28 66l-100 26v476l224 -490h72l226 496v-468 q0 -28 -18 -30l-72 -28v-48h282q28 20 28 66l-90 26v600q0 28 20 36l70 24v52h-218q-42 -90 -124 -272t-124 -270l-238 542h-194q-30 -18 -30 -64l90 -26v-608q0 -26 -18 -30l-72 -28v-48z" />
<glyph unicode="&#x25fc;" horiz-adv-x="940" d="M0 0v940h940v-940h-940z" />
</font>
</defs>
</svg>
